<svg width="321" height="159" viewBox="0 0 321 159" fill="none" xmlns="http://www.w3.org/2000/svg">
<g filter="url(#filter0_ddd_262_23041)">
<rect y="69.6976" width="310" height="84" rx="22" transform="rotate(-12.8633 0 69.6976)" fill="#FFB6E2"/>
<path d="M47.0691 95.363L50.0745 108.524L47.1089 109.201L44.396 97.3213L46.0557 98.3639L35.8602 100.692L36.9028 99.0324L39.6157 110.913L36.6325 111.594L33.6271 98.4326L47.0691 95.363ZM50.147 98.002L53.0775 97.3328L53.8028 100.509L53.7682 100.923L54.3171 103.327L54.6043 104.019L56.0188 110.213L53.0883 110.882L50.147 98.002ZM53.2018 102.567C53.1576 101.456 53.2916 100.453 53.604 99.5575C53.9254 98.6471 54.411 97.8899 55.0609 97.2861C55.7225 96.6796 56.5154 96.2708 57.4396 96.0598C58.4223 95.8354 59.3329 95.8613 60.1714 96.1375C61.019 96.3994 61.7442 96.88 62.347 97.5794C62.9472 98.267 63.3675 99.1373 63.6079 100.19C63.8457 101.231 63.8448 102.198 63.6053 103.09C63.3631 103.97 62.9185 104.717 62.2712 105.333C61.6331 105.934 60.8226 106.347 59.8399 106.571C58.904 106.785 58.0123 106.761 57.1647 106.499C56.3288 106.234 55.5699 105.768 54.8878 105.099C54.2031 104.418 53.6411 103.574 53.2018 102.567ZM60.6423 100.867C60.5087 100.282 60.2683 99.7958 59.9211 99.4073C59.5829 99.0045 59.1752 98.7284 58.698 98.5788C58.218 98.4176 57.7031 98.3998 57.1533 98.5254C56.6035 98.6509 56.1122 98.8985 55.6797 99.2681C55.2444 99.626 54.8917 100.076 54.6215 100.618C54.3604 101.145 54.1913 101.725 54.1143 102.358C54.4585 102.895 54.8626 103.344 55.3268 103.706C55.8027 104.065 56.3157 104.317 56.8658 104.462C57.4133 104.596 57.9619 104.6 58.5118 104.474C59.0616 104.349 59.5191 104.115 59.8841 103.773C60.2465 103.42 60.4939 102.994 60.6264 102.496C60.7705 101.995 60.7758 101.452 60.6423 100.867ZM66.4623 104.782L64.1822 94.797L67.0601 94.1398L68.9876 102.581L68.224 102.552L72.3596 92.9296L76.1325 92.0681L78.4127 102.053L75.5347 102.71L73.5712 94.1116L74.3387 94.1579L70.1299 103.944L66.4623 104.782ZM91.1468 94.8616C91.2248 95.7424 91.0637 96.5731 90.6635 97.3538C90.2749 98.1318 89.695 98.7997 88.9238 99.3573C88.1526 99.915 87.2406 100.314 86.1877 100.555C84.9944 100.827 83.8921 100.851 82.8807 100.627C81.8784 100.388 81.029 99.9293 80.3326 99.2513C79.6479 98.5707 79.188 97.7156 78.9529 96.6861C78.7152 95.6449 78.7583 94.6749 79.0824 93.7762C79.4155 92.8632 79.9816 92.0815 80.7809 91.4312C81.5919 90.7783 82.5941 90.3156 83.7874 90.0431C84.8402 89.8027 85.8364 89.7721 86.776 89.9515C87.7128 90.1191 88.5251 90.4691 89.2128 91.0013C89.9096 91.5192 90.4153 92.1976 90.73 93.0366L87.7995 93.7058C87.4924 93.062 87.0226 92.6216 86.3899 92.3845C85.7663 92.133 85.0684 92.0954 84.2963 92.2717C83.6762 92.4133 83.1603 92.6604 82.7484 93.0129C82.3456 93.3511 82.0735 93.7764 81.932 94.2887C81.7878 94.7894 81.7892 95.3614 81.9361 96.0049C82.0804 96.6366 82.3275 97.1525 82.6773 97.5527C83.0245 97.9411 83.4543 98.2061 83.9666 98.3476C84.488 98.4747 85.0587 98.4675 85.6788 98.3259C86.4626 98.1469 87.0795 97.8029 87.5295 97.294C87.9912 96.7824 88.2201 96.1946 88.2162 95.5309L91.1468 94.8616ZM99.4395 97.5284C98.1994 97.8116 97.062 97.8436 96.0273 97.6245C94.9898 97.3936 94.1184 96.9464 93.413 96.2828C92.7049 95.6075 92.2319 94.7492 91.9942 93.708C91.7537 92.6551 91.8072 91.6767 92.1547 90.7726C92.4995 89.8569 93.0904 89.0757 93.9275 88.4292C94.7619 87.7709 95.7991 87.3002 97.0392 87.017C98.2793 86.7338 99.418 86.7076 100.455 86.9385C101.49 87.1576 102.356 87.6062 103.052 88.2841C103.758 88.9477 104.231 89.806 104.471 90.8589C104.709 91.9001 104.655 92.8785 104.31 93.7943C103.975 94.6957 103.39 95.4755 102.555 96.1338C101.718 96.7803 100.68 97.2452 99.4395 97.5284ZM98.9306 95.2998C99.6091 95.1448 100.16 94.8897 100.584 94.5345C101.019 94.1767 101.315 93.746 101.47 93.2427C101.635 92.725 101.647 92.1561 101.505 91.5361C101.361 90.9044 101.104 90.3969 100.733 90.0138C100.371 89.6164 99.917 89.3509 99.3695 89.2174C98.8338 89.0813 98.2266 89.0907 97.5481 89.2456C96.8813 89.3979 96.3302 89.653 95.895 90.0108C95.4597 90.3687 95.1597 90.8065 94.9948 91.3242C94.8389 91.8275 94.8331 92.3951 94.9774 93.0268C95.119 93.6468 95.3705 94.1556 95.7321 94.5531C96.1027 94.9362 96.5617 95.1945 97.1092 95.328C97.6566 95.4614 98.2638 95.452 98.9306 95.2998ZM113.01 94.4295C111.828 94.6993 110.72 94.7247 109.685 94.5055C108.66 94.272 107.787 93.819 107.067 93.1463C106.359 92.471 105.885 91.6069 105.644 90.554C105.407 89.5128 105.45 88.5429 105.774 87.6442C106.11 86.7428 106.673 85.9742 107.463 85.3383C108.25 84.6907 109.212 84.2373 110.346 83.9782C111.505 83.7137 112.558 83.744 113.506 84.0691C114.451 84.3825 115.252 84.9505 115.908 85.7732C116.575 86.5932 117.051 87.6291 117.337 88.8809L108.212 90.9647L107.767 89.0168L115.313 87.2937L114.333 88.2561C114.152 87.6818 113.893 87.218 113.553 86.8647C113.226 86.5086 112.832 86.2662 112.372 86.1374C111.912 86.0087 111.407 86.0071 110.857 86.1326C110.26 86.2689 109.768 86.5106 109.379 86.8578C109 87.1906 108.737 87.6015 108.59 88.0905C108.452 88.565 108.449 89.089 108.579 89.6622C108.737 90.3524 109.024 90.9085 109.44 91.3304C109.857 91.7523 110.387 92.0251 111.031 92.1489C111.674 92.2727 112.411 92.2398 113.242 92.0501C113.991 91.8791 114.721 91.6015 115.434 91.2173C116.143 90.8214 116.757 90.3551 117.274 89.8184L117.723 91.7838C117.175 92.4014 116.493 92.9449 115.677 93.4143C114.87 93.8694 113.981 94.2078 113.01 94.4295ZM132.99 87.2637L134.056 91.9315L131.511 92.5126L130.95 90.0558L121.614 92.1877L122.175 94.6445L119.631 95.2255L118.565 90.5577L121.355 89.9205L122.016 89.8249L129.281 88.1659L129.848 87.981L132.99 87.2637ZM118.948 82.2909L129.372 79.9106L131.5 89.2287L128.569 89.8979L126.634 81.4221L128.293 82.4648L120.906 84.1518L121.841 82.8304C122.061 83.3094 122.235 83.7744 122.362 84.2253C122.487 84.6645 122.594 85.0772 122.682 85.4632C123.061 87.1245 123.106 88.4805 122.817 89.5313C122.525 90.5703 121.923 91.1941 121.01 91.4025L119.589 90.6747C120.37 89.7824 120.468 88.0553 119.882 85.4932C119.768 84.9902 119.631 84.4736 119.473 83.9435C119.313 83.4016 119.138 82.8508 118.948 82.2909ZM135.044 89.1208L132.764 79.1359L135.642 78.4787L137.57 86.9194L136.806 86.8907L140.942 77.2685L144.715 76.4069L146.995 86.3919L144.117 87.0491L142.153 78.4504L142.921 78.4967L138.712 88.2833L135.044 89.1208ZM146.92 75.9035L149.833 75.2382L152.113 85.2232L149.2 85.8884L146.92 75.9035ZM155.29 73.992L158.203 73.3268L160.483 83.3118L157.57 83.977L155.29 73.992ZM149.452 79.3132L157.296 77.5219L157.801 79.733L149.957 81.5243L149.452 79.3132ZM169.848 75.5234L170.285 77.4362L165.372 78.5582L165.32 78.496C164.56 78.6697 163.864 78.6932 163.232 78.5668C162.597 78.4286 162.061 78.1571 161.624 77.7522C161.196 77.333 160.909 76.8017 160.762 76.1583C160.615 75.5148 160.644 74.9172 160.851 74.3654C161.066 73.7993 161.43 73.3162 161.941 72.9162C162.451 72.5045 163.085 72.2119 163.846 72.0382L170.883 70.4313L173.163 80.4163L170.232 81.0855L168.128 71.8727L169.282 72.8831L165.001 73.8609C164.509 73.9731 164.15 74.1783 163.923 74.4763C163.704 74.7601 163.642 75.1067 163.735 75.5161C163.829 75.9256 164.038 76.2224 164.363 76.4067C164.698 76.5765 165.11 76.6053 165.602 76.4931L169.848 75.5234ZM167.798 76.7302L165.406 82.1875L162.072 82.9489L164.604 77.4596L167.798 76.7302ZM175.368 79.9128L173.088 69.9278L175.966 69.2706L177.893 77.7113L177.13 77.6826L181.265 68.0604L185.038 67.1989L187.318 77.1838L184.44 77.841L182.477 69.2424L183.244 69.2886L179.035 79.0752L175.368 79.9128ZM178.776 67.6688C177.641 67.928 176.665 67.8614 175.85 67.4692C175.031 67.0653 174.419 66.3497 174.012 65.3225L176.31 64.7976C176.507 65.2819 176.783 65.6252 177.136 65.8275C177.499 66.0154 177.915 66.056 178.383 65.9491C178.851 65.8423 179.202 65.6267 179.435 65.3026C179.666 64.9667 179.771 64.5366 179.75 64.0122L182.031 63.4912C182.122 64.5905 181.881 65.5011 181.307 66.223C180.743 66.9304 179.899 67.4124 178.776 67.6688ZM200.052 69.9924C200.13 70.8731 199.969 71.7039 199.569 72.4846C199.18 73.2626 198.601 73.9304 197.829 74.4881C197.058 75.0458 196.146 75.4449 195.093 75.6853C193.9 75.9578 192.798 75.9818 191.786 75.7573C190.784 75.5185 189.935 75.0601 189.238 74.3821C188.553 73.7014 188.094 72.8464 187.858 71.8169C187.621 70.7757 187.664 69.8057 187.988 68.907C188.321 67.9939 188.887 67.2123 189.686 66.562C190.497 65.9091 191.5 65.4464 192.693 65.1739C193.746 64.9334 194.742 64.9029 195.682 65.0822C196.618 65.2499 197.431 65.5998 198.118 66.1321C198.815 66.65 199.321 67.3284 199.636 68.1674L196.705 68.8366C196.398 68.1928 195.928 67.7523 195.295 67.5152C194.672 67.2638 193.974 67.2262 193.202 67.4025C192.582 67.5441 192.066 67.7912 191.654 68.1437C191.251 68.4819 190.979 68.9071 190.838 69.4195C190.693 69.9201 190.695 70.4922 190.842 71.1356C190.986 71.7674 191.233 72.2833 191.583 72.6835C191.93 73.0719 192.36 73.3369 192.872 73.4784C193.394 73.6055 193.964 73.5983 194.584 73.4567C195.368 73.2777 195.985 72.9337 196.435 72.4248C196.897 71.9131 197.126 71.3254 197.122 70.6616L200.052 69.9924ZM209.726 66.4171L210.163 68.3298L205.249 69.4519L205.198 69.3897C204.438 69.5633 203.742 69.5869 203.11 69.4604C202.475 69.3223 201.939 69.0508 201.502 68.6459C201.074 68.2267 200.786 67.6954 200.639 67.0519C200.492 66.4085 200.522 65.8109 200.728 65.2591C200.944 64.6929 201.307 64.2099 201.819 63.8099C202.328 63.3982 202.963 63.1056 203.724 62.9319L210.76 61.325L213.041 71.31L210.11 71.9792L208.006 62.7663L209.16 63.7768L204.878 64.7546C204.387 64.8668 204.028 65.0719 203.8 65.37C203.582 65.6537 203.52 66.0003 203.613 66.4098C203.707 66.8193 203.916 67.1161 204.241 67.3003C204.575 67.4702 204.988 67.499 205.479 67.3868L209.726 66.4171ZM207.675 67.6239L205.284 73.0812L201.95 73.8426L204.482 68.3532L207.675 67.6239ZM212.258 57.6412L215.311 56.944L216.835 65.8829L214.765 66.3558L212.258 57.6412ZM216.826 70.6117C216.323 70.7266 215.88 70.6739 215.497 70.4535C215.112 70.2215 214.866 69.8715 214.759 69.4035C214.65 68.9239 214.719 68.5018 214.968 68.1372C215.215 67.7609 215.59 67.5153 216.093 67.4004C216.596 67.2855 217.04 67.3441 217.425 67.5761C217.808 67.7965 218.054 68.1465 218.163 68.6261C218.27 69.0941 218.201 69.5162 217.954 69.8925C217.705 70.2571 217.329 70.4969 216.826 70.6117Z" fill="#111010"/>
<circle cx="264.775" cy="52.3158" r="23" transform="rotate(-12.8633 264.775 52.3158)" fill="white"/>
<path d="M274.281 50.1453C274.329 50.3554 274.291 50.5759 274.176 50.7584C274.062 50.9409 273.879 51.0703 273.669 51.1183L265.748 52.9271L267.557 60.8482C267.605 61.0583 267.568 61.2789 267.453 61.4613C267.338 61.6438 267.156 61.7733 266.946 61.8212C266.736 61.8692 266.515 61.8318 266.333 61.7171C266.15 61.6025 266.021 61.4201 265.973 61.21L264.164 53.2889L256.243 55.0977C256.033 55.1457 255.812 55.1083 255.63 54.9936C255.447 54.879 255.318 54.6966 255.27 54.4865C255.222 54.2764 255.259 54.0559 255.374 53.8734C255.489 53.691 255.671 53.5615 255.881 53.5135L263.802 51.7047L261.993 43.7836C261.945 43.5735 261.983 43.353 262.098 43.1705C262.212 42.988 262.395 42.8586 262.605 42.8106C262.815 42.7626 263.035 42.8001 263.218 42.9147C263.4 43.0293 263.53 43.2118 263.578 43.4218L265.387 51.3429L273.308 49.5341C273.518 49.4861 273.738 49.5236 273.921 49.6382C274.103 49.7528 274.233 49.9352 274.281 50.1453Z" fill="#111010"/>
<rect x="1.79629" y="70.8261" width="307" height="81" rx="20.5" transform="rotate(-12.8633 1.79629 70.8261)" stroke="white" stroke-width="3"/>
</g>
<defs>
<filter id="filter0_ddd_262_23041" x="-4" y="0.683838" width="328.921" height="161.906" filterUnits="userSpaceOnUse" color-interpolation-filters="sRGB">
<feFlood flood-opacity="0" result="BackgroundImageFix"/>
<feColorMatrix in="SourceAlpha" type="matrix" values="0 0 0 0 0 0 0 0 0 0 0 0 0 0 0 0 0 0 127 0" result="hardAlpha"/>
<feOffset/>
<feColorMatrix type="matrix" values="0 0 0 0 0 0 0 0 0 0 0 0 0 0 0 0 0 0 0.1 0"/>
<feBlend mode="normal" in2="BackgroundImageFix" result="effect1_dropShadow_262_23041"/>
<feColorMatrix in="SourceAlpha" type="matrix" values="0 0 0 0 0 0 0 0 0 0 0 0 0 0 0 0 0 0 127 0" result="hardAlpha"/>
<feOffset dy="3"/>
<feGaussianBlur stdDeviation="1.5"/>
<feColorMatrix type="matrix" values="0 0 0 0 0 0 0 0 0 0 0 0 0 0 0 0 0 0 0.09 0"/>
<feBlend mode="normal" in2="effect1_dropShadow_262_23041" result="effect2_dropShadow_262_23041"/>
<feColorMatrix in="SourceAlpha" type="matrix" values="0 0 0 0 0 0 0 0 0 0 0 0 0 0 0 0 0 0 127 0" result="hardAlpha"/>
<feOffset dy="7"/>
<feGaussianBlur stdDeviation="2"/>
<feColorMatrix type="matrix" values="0 0 0 0 0 0 0 0 0 0 0 0 0 0 0 0 0 0 0.05 0"/>
<feBlend mode="normal" in2="effect2_dropShadow_262_23041" result="effect3_dropShadow_262_23041"/>
<feBlend mode="normal" in="SourceGraphic" in2="effect3_dropShadow_262_23041" result="shape"/>
</filter>
</defs>
</svg>
