<svg width="174" height="159" viewBox="0 0 174 159" fill="none" xmlns="http://www.w3.org/2000/svg">
<g filter="url(#filter0_ddd_226_22924)">
<rect x="4" width="166" height="148" rx="29" fill="#3CCFBC"/>
<circle cx="39" cy="39" r="23" fill="white"/>
<g clip-path="url(#clip0_226_22924)">
<path d="M52.0317 32.7725C51.7698 32.8581 51.6448 33.1952 51.7525 33.5247C52.0511 34.4389 52.6187 36.1764 52.9172 37.09C53.0248 37.4195 53.3246 37.6173 53.5871 37.5315C53.849 37.4459 53.9732 37.1096 53.8656 36.7802C53.5673 35.8671 52.9996 34.1296 52.7007 33.2144C52.5932 32.8854 52.2937 32.6869 52.0317 32.7725Z" fill="black"/>
<path d="M25.4144 41.4681C25.1525 41.5536 25.0269 41.891 25.1346 42.2205C25.4335 43.1357 26.0003 44.8705 26.2995 45.7845C26.4071 46.114 26.7069 46.3118 26.9692 46.2273C27.2312 46.1417 27.3558 45.8052 27.2482 45.4758C26.9498 44.5622 26.3823 42.8252 26.0839 41.9098C25.9763 41.5808 25.6765 41.3825 25.4144 41.4681Z" fill="black"/>
<path d="M29.4895 34.1549C28.6155 34.4404 28.1684 35.4738 28.4913 36.4623C29.4702 39.4587 31.4299 45.4555 32.409 48.4506C32.7319 49.4391 33.7018 50.0095 34.5758 49.724C35.4499 49.4384 35.8968 48.4045 35.574 47.4166C35.1901 46.2415 34.6547 44.6026 34.0874 42.8661C35 42.568 43.1677 39.8997 45.6022 39.1044C46.1697 40.8415 46.7049 42.4798 47.089 43.6555C47.4117 44.6434 48.3826 45.2135 49.2567 44.9279C50.1307 44.6424 50.5766 43.6088 50.2539 42.6209C49.275 39.6245 47.3159 33.6275 46.3374 30.6322C46.0143 29.6433 45.0445 29.0733 44.1705 29.3588C43.2965 29.6444 42.849 30.6767 43.1723 31.6662C43.5561 32.8413 44.0914 34.4797 44.6588 36.2166C42.2234 37.0123 34.0566 39.6802 33.144 39.9784C32.5766 38.2414 32.0413 36.6029 31.6573 35.4274C31.3343 34.4385 30.3641 33.8692 29.4895 34.1549Z" fill="black"/>
<path d="M48.6302 30.5483C48.5785 30.5652 48.5274 30.5819 48.4752 30.599C47.8167 30.8141 47.4563 31.5217 47.6718 32.1811C48.3498 34.2565 49.7385 38.5076 50.4165 40.5829C50.6318 41.2419 51.3409 41.6019 51.9998 41.3866C52.0515 41.3697 52.1038 41.3526 52.1549 41.3359C52.8138 41.1207 53.1742 40.4131 52.9587 39.7536C52.2809 37.6788 50.892 33.4272 50.2135 31.3519C49.9986 30.6923 49.2892 30.3331 48.6302 30.5483Z" fill="black"/>
<path d="M26.828 37.6709C26.7763 37.6877 26.7241 37.7048 26.6725 37.7217C26.0135 37.9369 25.6536 38.6444 25.869 39.3038C26.547 41.3792 27.9358 45.6303 28.6138 47.7056C28.8292 48.3651 29.5377 48.7247 30.1967 48.5094C30.2483 48.4925 30.3005 48.4755 30.3516 48.4588C31.0106 48.2435 31.3705 47.5361 31.155 46.8766C30.4772 44.8017 29.0883 40.5502 28.4103 38.4747C28.1954 37.8152 27.4869 37.4556 26.828 37.6709Z" fill="black"/>
</g>
<path d="M79.0781 34.3182V44.5H77.5469V35.6307H72.7543V44.5H71.223V34.3182H79.0781ZM81.3079 47.3636V36.8636H82.7596V38.1016H82.8839C82.9701 37.9425 83.0943 37.7585 83.2567 37.5497C83.4192 37.3409 83.6445 37.1586 83.9329 37.0028C84.2212 36.8438 84.6024 36.7642 85.0763 36.7642C85.6928 36.7642 86.243 36.92 86.7269 37.2315C87.2108 37.5431 87.5903 37.9922 87.8654 38.5788C88.1438 39.1655 88.283 39.8714 88.283 40.6967C88.283 41.522 88.1455 42.2296 87.8704 42.8196C87.5953 43.4062 87.2174 43.8587 86.7369 44.1768C86.2563 44.4917 85.7077 44.6491 85.0913 44.6491C84.6272 44.6491 84.2478 44.5713 83.9528 44.4155C83.6611 44.2597 83.4324 44.0774 83.2667 43.8686C83.101 43.6598 82.9734 43.4742 82.8839 43.3118H82.7944V47.3636H81.3079ZM82.7646 40.6818C82.7646 41.2187 82.8424 41.6894 82.9982 42.0938C83.154 42.4981 83.3794 42.8146 83.6744 43.0433C83.9693 43.2687 84.3306 43.3814 84.7582 43.3814C85.2023 43.3814 85.5735 43.2637 85.8718 43.0284C86.1701 42.7898 86.3955 42.4666 86.5479 42.0589C86.7037 41.6513 86.7816 41.1922 86.7816 40.6818C86.7816 40.178 86.7054 39.7256 86.5529 39.3246C86.4038 38.9235 86.1784 38.607 85.8768 38.375C85.5785 38.143 85.2056 38.027 84.7582 38.027C84.3273 38.027 83.9627 38.138 83.6644 38.3601C83.3694 38.5821 83.1457 38.892 82.9933 39.2898C82.8408 39.6875 82.7646 40.1515 82.7646 40.6818ZM91.4052 42.4169L94.771 36.8636H96.3718V44.5H94.9151V38.9418L91.5643 44.5H89.9485V36.8636H91.4052V42.4169ZM101.587 44.6541C100.848 44.6541 100.212 44.4867 99.6779 44.152C99.1476 43.8139 98.7399 43.3482 98.4549 42.755C98.1699 42.1617 98.0273 41.4822 98.0273 40.7166C98.0273 39.9411 98.1732 39.2566 98.4648 38.6634C98.7565 38.0668 99.1675 37.6011 99.6978 37.2663C100.228 36.9316 100.853 36.7642 101.572 36.7642C102.152 36.7642 102.669 36.8719 103.123 37.0874C103.577 37.2995 103.944 37.5978 104.222 37.9822C104.504 38.3667 104.671 38.8158 104.724 39.3295H103.277C103.198 38.9716 103.016 38.6634 102.73 38.4048C102.449 38.1463 102.071 38.017 101.597 38.017C101.183 38.017 100.82 38.1264 100.508 38.3452C100.2 38.5606 99.9596 38.8688 99.7873 39.2699C99.6149 39.6676 99.5288 40.1383 99.5288 40.6818C99.5288 41.2386 99.6133 41.7192 99.7823 42.1236C99.9513 42.5279 100.19 42.8411 100.498 43.0632C100.81 43.2853 101.176 43.3963 101.597 43.3963C101.879 43.3963 102.134 43.3449 102.363 43.2422C102.595 43.1361 102.788 42.9853 102.944 42.7898C103.103 42.5942 103.214 42.3589 103.277 42.0838H104.724C104.671 42.5777 104.51 43.0185 104.242 43.4062C103.973 43.794 103.614 44.099 103.163 44.321C102.716 44.5431 102.19 44.6541 101.587 44.6541ZM109.605 44.6541C108.853 44.6541 108.205 44.4934 107.661 44.1719C107.121 43.8471 106.703 43.3913 106.408 42.8047C106.117 42.2147 105.971 41.5237 105.971 40.7315C105.971 39.9493 106.117 39.2599 106.408 38.6634C106.703 38.0668 107.114 37.6011 107.641 37.2663C108.171 36.9316 108.791 36.7642 109.501 36.7642C109.931 36.7642 110.349 36.8355 110.753 36.978C111.158 37.1205 111.521 37.3442 111.842 37.6491C112.164 37.9541 112.417 38.3501 112.603 38.8374C112.788 39.3213 112.881 39.9096 112.881 40.6023V41.1293H106.811V40.0156H111.425C111.425 39.6245 111.345 39.2782 111.186 38.9766C111.027 38.6716 110.803 38.4313 110.515 38.2557C110.23 38.08 109.895 37.9922 109.51 37.9922C109.093 37.9922 108.728 38.0949 108.417 38.3004C108.108 38.5026 107.87 38.7678 107.701 39.0959C107.535 39.4207 107.452 39.7737 107.452 40.1548V41.0249C107.452 41.5353 107.542 41.9695 107.721 42.3274C107.903 42.6854 108.157 42.9588 108.481 43.1477C108.806 43.3333 109.186 43.4261 109.62 43.4261C109.902 43.4261 110.158 43.3864 110.39 43.3068C110.622 43.224 110.823 43.1013 110.992 42.9389C111.161 42.7765 111.29 42.576 111.38 42.3374L112.787 42.5909C112.674 43.0052 112.472 43.3681 112.18 43.6797C111.892 43.9879 111.529 44.2282 111.091 44.4006C110.657 44.5696 110.162 44.6541 109.605 44.6541ZM113.785 46.7024V43.2124H114.406C114.565 43.0665 114.7 42.8925 114.809 42.6903C114.922 42.4882 115.016 42.2479 115.092 41.9695C115.172 41.6911 115.238 41.3662 115.291 40.995C115.344 40.6205 115.391 40.1929 115.43 39.7124L115.669 36.8636H120.859V43.2124H122.033V46.7024H120.581V44.5H115.256V46.7024H113.785ZM115.997 43.2124H119.408V38.1364H117.001L116.842 39.7124C116.766 40.5144 116.67 41.2105 116.554 41.8004C116.438 42.3871 116.252 42.8577 115.997 43.2124ZM125.708 44.669C125.224 44.669 124.787 44.5795 124.395 44.4006C124.004 44.2183 123.694 43.9548 123.466 43.6101C123.24 43.2654 123.128 42.8428 123.128 42.3423C123.128 41.9115 123.211 41.5568 123.376 41.2784C123.542 41 123.766 40.7796 124.047 40.6172C124.329 40.4548 124.644 40.3321 124.992 40.2493C125.34 40.1664 125.695 40.1035 126.056 40.0604C126.513 40.0073 126.885 39.9643 127.17 39.9311C127.455 39.8946 127.662 39.8366 127.791 39.7571C127.92 39.6776 127.985 39.5483 127.985 39.3693V39.3345C127.985 38.9003 127.862 38.5639 127.617 38.3253C127.375 38.0866 127.014 37.9673 126.533 37.9673C126.033 37.9673 125.638 38.0784 125.35 38.3004C125.065 38.5192 124.868 38.7628 124.758 39.0312L123.361 38.7131C123.527 38.2491 123.769 37.8745 124.087 37.5895C124.409 37.3011 124.778 37.0923 125.196 36.9631C125.613 36.8305 126.053 36.7642 126.513 36.7642C126.818 36.7642 127.141 36.8007 127.483 36.8736C127.827 36.9432 128.149 37.0724 128.447 37.2614C128.749 37.4503 128.996 37.7204 129.188 38.0717C129.38 38.4197 129.476 38.8722 129.476 39.429V44.5H128.025V43.456H127.965C127.869 43.6482 127.725 43.8371 127.532 44.0227C127.34 44.2083 127.093 44.3625 126.792 44.4851C126.49 44.6077 126.129 44.669 125.708 44.669ZM126.031 43.4759C126.442 43.4759 126.793 43.3946 127.085 43.2322C127.38 43.0698 127.604 42.8577 127.756 42.5959C127.912 42.3307 127.99 42.0473 127.99 41.7457V40.7614C127.937 40.8144 127.834 40.8641 127.682 40.9105C127.532 40.9536 127.362 40.9917 127.17 41.0249C126.977 41.0547 126.79 41.0829 126.608 41.1094C126.425 41.1326 126.273 41.1525 126.15 41.169C125.862 41.2055 125.599 41.2668 125.36 41.353C125.125 41.4392 124.936 41.5634 124.793 41.7259C124.654 41.8849 124.584 42.0971 124.584 42.3622C124.584 42.7301 124.72 43.0085 124.992 43.1974C125.264 43.383 125.61 43.4759 126.031 43.4759ZM136.632 40.0405V41.3281H132.495V40.0405H136.632ZM132.913 36.8636V44.5H131.456V36.8636H132.913ZM137.671 36.8636V44.5H136.219V36.8636H137.671ZM141.116 42.4169L144.482 36.8636H146.083V44.5H144.626V38.9418L141.275 44.5H139.659V36.8636H141.116V42.4169ZM152.635 44.5V38.1314H150.806C150.372 38.1314 150.033 38.2325 149.792 38.4347C149.55 38.6368 149.429 38.902 149.429 39.2301C149.429 39.5549 149.54 39.8168 149.762 40.0156C149.987 40.2112 150.302 40.3089 150.706 40.3089H153.068V41.5121H150.706C150.143 41.5121 149.656 41.4193 149.245 41.2337C148.837 41.0447 148.522 40.7779 148.3 40.4332C148.081 40.0885 147.972 39.6809 147.972 39.2102C147.972 38.7296 148.085 38.3153 148.31 37.9673C148.539 37.616 148.865 37.3442 149.289 37.152C149.717 36.9598 150.222 36.8636 150.806 36.8636H154.032V44.5H152.635ZM147.624 44.5L149.777 40.642H151.298L149.145 44.5H147.624Z" fill="white"/>
<path d="M30.1671 76.1765V100H23.6553V78.4635L26.7047 81.2906L16.4447 83.1012V78.0188L25.3388 76.1765H30.1671ZM36.4416 76.1765H55.0875V81.0682H38.3792L41.0157 79.9247L39.6816 88.4694L38.0616 88.5012C38.5275 87.6965 39.1628 86.9659 39.9675 86.3094C40.7722 85.6529 41.7675 85.1341 42.9533 84.7529C44.1392 84.3506 45.5157 84.1494 47.0828 84.1494C49.1157 84.1494 50.8628 84.4882 52.3239 85.1659C53.8063 85.8224 54.9498 86.7435 55.7545 87.9294C56.5592 89.0941 56.9616 90.4494 56.9616 91.9953C56.9616 93.6471 56.4957 95.1188 55.5639 96.4106C54.6533 97.6812 53.3298 98.6871 51.5933 99.4282C49.8781 100.148 47.8028 100.508 45.3675 100.508C43.0169 100.508 40.9628 100.169 39.2051 99.4918C37.4686 98.7929 36.1028 97.8612 35.1075 96.6965C34.1333 95.5106 33.5722 94.1871 33.4239 92.7259H39.9675C40.1792 93.5518 40.751 94.2188 41.6828 94.7271C42.6145 95.2141 43.8428 95.4576 45.3675 95.4576C46.4263 95.4576 47.3263 95.32 48.0675 95.0447C48.8086 94.7482 49.3804 94.3459 49.7828 93.8376C50.1851 93.3082 50.3863 92.6835 50.3863 91.9635C50.3863 91.2859 50.2063 90.6824 49.8463 90.1529C49.4863 89.6235 48.9463 89.2212 48.2263 88.9459C47.5063 88.6494 46.6169 88.5012 45.5581 88.5012C44.6686 88.5012 43.8745 88.5965 43.1757 88.7871C42.4769 88.9776 41.8628 89.2212 41.3333 89.5176C40.8251 89.8141 40.391 90.1318 40.031 90.4706H34.3451L36.4416 76.1765Z" fill="white"/>
<path d="M69.0739 101.864V91.3636H70.2074V92.5767H70.3466C70.4328 92.4441 70.5521 92.2751 70.7045 92.0696C70.8603 91.8608 71.0824 91.6752 71.3707 91.5128C71.6624 91.3471 72.0568 91.2642 72.554 91.2642C73.197 91.2642 73.7637 91.425 74.2543 91.7464C74.7448 92.0679 75.1276 92.5237 75.4027 93.1136C75.6778 93.7036 75.8153 94.3996 75.8153 95.2017C75.8153 96.0104 75.6778 96.7114 75.4027 97.3047C75.1276 97.8946 74.7464 98.352 74.2592 98.6768C73.772 98.9983 73.2102 99.1591 72.5739 99.1591C72.0833 99.1591 71.6906 99.0779 71.3956 98.9155C71.1006 98.7498 70.8736 98.5625 70.7145 98.3537C70.5554 98.1416 70.4328 97.9659 70.3466 97.8267H70.2472V101.864H69.0739ZM70.2273 95.1818C70.2273 95.7585 70.3118 96.2673 70.4808 96.7081C70.6499 97.1456 70.8968 97.4886 71.2216 97.7372C71.5464 97.9825 71.9441 98.1051 72.4148 98.1051C72.9053 98.1051 73.3146 97.9759 73.6428 97.7173C73.9742 97.4555 74.2228 97.1042 74.3885 96.6634C74.5575 96.2192 74.642 95.7254 74.642 95.1818C74.642 94.6449 74.5592 94.161 74.3935 93.7301C74.2311 93.2959 73.9841 92.9529 73.6527 92.701C73.3246 92.4458 72.9119 92.3182 72.4148 92.3182C71.9375 92.3182 71.5365 92.4392 71.2116 92.6811C70.8868 92.9197 70.6416 93.2545 70.4759 93.6854C70.3101 94.1129 70.2273 94.6117 70.2273 95.1818ZM80.8068 99.1591C80.071 99.1591 79.4363 98.9967 78.9027 98.6719C78.3724 98.3438 77.9631 97.8864 77.6747 97.2997C77.3897 96.7098 77.2472 96.0237 77.2472 95.2415C77.2472 94.4593 77.3897 93.7699 77.6747 93.1733C77.9631 92.5734 78.3641 92.1061 78.8778 91.7713C79.3949 91.4332 79.9981 91.2642 80.6875 91.2642C81.0852 91.2642 81.478 91.3305 81.8658 91.4631C82.2536 91.5956 82.6065 91.8111 82.9247 92.1094C83.2429 92.4044 83.4964 92.7955 83.6854 93.2827C83.8743 93.7699 83.9688 94.3698 83.9688 95.0824V95.5795H78.0824V94.5653H82.7756C82.7756 94.1345 82.6894 93.75 82.517 93.4119C82.348 93.0739 82.1061 92.8071 81.7912 92.6115C81.4796 92.416 81.1117 92.3182 80.6875 92.3182C80.2202 92.3182 79.8158 92.4342 79.4744 92.6662C79.1364 92.8949 78.8762 93.1932 78.6939 93.5611C78.5116 93.929 78.4205 94.3234 78.4205 94.7443V95.4205C78.4205 95.9972 78.5199 96.486 78.7188 96.8871C78.9209 97.2848 79.201 97.5881 79.5589 97.7969C79.9169 98.0024 80.3329 98.1051 80.8068 98.1051C81.1151 98.1051 81.3935 98.062 81.642 97.9759C81.8939 97.8864 82.111 97.7538 82.2933 97.5781C82.4756 97.3991 82.6165 97.1771 82.7159 96.9119L83.8494 97.2301C83.7301 97.6146 83.5296 97.9527 83.2479 98.2443C82.9661 98.5327 82.6181 98.758 82.2038 98.9205C81.7895 99.0795 81.3239 99.1591 80.8068 99.1591ZM85.2763 97.0511H86.5291C86.5556 97.3958 86.7114 97.6577 86.9964 97.8366C87.2848 98.0156 87.6593 98.1051 88.12 98.1051C88.5907 98.1051 88.9934 98.009 89.3281 97.8168C89.6629 97.6212 89.8303 97.3063 89.8303 96.8722C89.8303 96.617 89.7673 96.3949 89.6413 96.206C89.5154 96.0137 89.3381 95.8646 89.1094 95.7585C88.8807 95.6525 88.6106 95.5994 88.299 95.5994H86.9865V94.5455H88.299C88.7663 94.5455 89.111 94.4394 89.3331 94.2273C89.5585 94.0152 89.6712 93.75 89.6712 93.4318C89.6712 93.0904 89.5502 92.817 89.3082 92.6115C89.0663 92.4027 88.7232 92.2983 88.2791 92.2983C87.8317 92.2983 87.4588 92.3994 87.1605 92.6016C86.8622 92.8004 86.7048 93.0573 86.6882 93.3722H85.4553C85.4685 92.9612 85.5945 92.5982 85.8331 92.2834C86.0717 91.9652 86.3965 91.7166 86.8075 91.5376C87.2185 91.3554 87.6892 91.2642 88.2195 91.2642C88.7564 91.2642 89.2221 91.3587 89.6165 91.5476C90.0142 91.7332 90.3208 91.9867 90.5362 92.3082C90.755 92.6264 90.8643 92.9877 90.8643 93.392C90.8643 93.8229 90.7434 94.1709 90.5014 94.4361C90.2595 94.7012 89.9562 94.8902 89.5916 95.0028V95.0824C89.88 95.1023 90.1302 95.1951 90.3423 95.3608C90.5578 95.5232 90.7251 95.737 90.8445 96.0021C90.9638 96.264 91.0234 96.554 91.0234 96.8722C91.0234 97.3362 90.8991 97.7405 90.6506 98.0852C90.402 98.4266 90.0606 98.6918 89.6264 98.8807C89.1922 99.0663 88.6967 99.1591 88.1399 99.1591C87.5997 99.1591 87.1158 99.0713 86.6882 98.8956C86.2607 98.7166 85.9209 98.4697 85.669 98.1548C85.4205 97.8366 85.2895 97.4688 85.2763 97.0511ZM93.4272 101.864C93.2283 101.864 93.051 101.847 92.8952 101.814C92.7395 101.784 92.6317 101.754 92.5721 101.724L92.8704 100.69C93.1554 100.763 93.4073 100.79 93.6261 100.77C93.8448 100.75 94.0387 100.652 94.2077 100.477C94.3801 100.304 94.5375 100.024 94.68 99.6364L94.8988 99.0398L92.0749 91.3636H93.3477L95.4556 97.4489H95.5352L97.6431 91.3636H98.9158L95.6744 100.114C95.5285 100.508 95.3479 100.835 95.1325 101.093C94.917 101.355 94.6668 101.549 94.3817 101.675C94.1 101.801 93.7818 101.864 93.4272 101.864ZM99.1458 99V97.9062H99.4242C99.6529 97.9062 99.8435 97.8615 99.9959 97.772C100.148 97.6792 100.271 97.5185 100.364 97.2898C100.46 97.0578 100.533 96.7363 100.583 96.3253C100.636 95.911 100.674 95.384 100.697 94.7443L100.836 91.3636H105.927V99H104.754V92.4574H101.95L101.83 95.1818C101.804 95.8082 101.748 96.3601 101.661 96.8374C101.579 97.3113 101.451 97.709 101.279 98.0305C101.11 98.352 100.884 98.594 100.602 98.7564C100.321 98.9188 99.9677 99 99.5435 99H99.1458ZM109.094 94.1278H111.281C112.176 94.1278 112.861 94.3549 113.335 94.8089C113.809 95.263 114.046 95.8381 114.046 96.5341C114.046 96.9915 113.94 97.4074 113.727 97.782C113.515 98.1532 113.204 98.4498 112.793 98.6719C112.382 98.8906 111.878 99 111.281 99H108.08V91.3636H109.253V97.9062H111.281C111.745 97.9062 112.127 97.7836 112.425 97.5384C112.723 97.2931 112.872 96.9782 112.872 96.5938C112.872 96.1894 112.723 95.8596 112.425 95.6044C112.127 95.3492 111.745 95.2216 111.281 95.2216H109.094V94.1278ZM114.601 92.4574V91.3636H120.806V92.4574H118.3V99H117.127V92.4574H114.601ZM124.368 99.179C123.884 99.179 123.445 99.0878 123.05 98.9055C122.656 98.7199 122.343 98.4531 122.111 98.1051C121.879 97.7538 121.763 97.3295 121.763 96.8324C121.763 96.3949 121.849 96.0402 122.021 95.7685C122.194 95.4934 122.424 95.2779 122.712 95.1222C123.001 94.9664 123.319 94.8504 123.667 94.7741C124.018 94.6946 124.371 94.6316 124.726 94.5852C125.19 94.5256 125.566 94.4808 125.854 94.451C126.146 94.4179 126.358 94.3632 126.491 94.2869C126.627 94.2107 126.695 94.0781 126.695 93.8892V93.8494C126.695 93.3589 126.56 92.9777 126.292 92.706C126.027 92.4342 125.624 92.2983 125.084 92.2983C124.524 92.2983 124.085 92.4209 123.766 92.6662C123.448 92.9115 123.224 93.1733 123.095 93.4517L121.982 93.054C122.18 92.59 122.446 92.2287 122.777 91.9702C123.112 91.7083 123.476 91.526 123.871 91.4233C124.268 91.3172 124.66 91.2642 125.044 91.2642C125.289 91.2642 125.571 91.294 125.889 91.3537C126.211 91.41 126.521 91.5277 126.819 91.7067C127.121 91.8857 127.371 92.1558 127.57 92.517C127.768 92.8783 127.868 93.3622 127.868 93.9688V99H126.695V97.9659H126.635C126.555 98.1316 126.423 98.3089 126.237 98.4979C126.052 98.6868 125.805 98.8475 125.496 98.9801C125.188 99.1127 124.812 99.179 124.368 99.179ZM124.547 98.125C125.011 98.125 125.402 98.0339 125.72 97.8516C126.042 97.6693 126.284 97.4339 126.446 97.1456C126.612 96.8572 126.695 96.554 126.695 96.2358V95.1619C126.645 95.2216 126.536 95.2763 126.366 95.326C126.201 95.3724 126.009 95.4138 125.79 95.4503C125.574 95.4834 125.364 95.5133 125.158 95.5398C124.956 95.563 124.792 95.5829 124.666 95.5994C124.361 95.6392 124.076 95.7038 123.811 95.7933C123.549 95.8795 123.337 96.0104 123.175 96.1861C123.016 96.3584 122.936 96.5937 122.936 96.892C122.936 97.2997 123.087 97.608 123.388 97.8168C123.693 98.0223 124.08 98.125 124.547 98.125ZM128.97 92.4574V91.3636H135.175V92.4574H132.669V99H131.496V92.4574H128.97Z" fill="white"/>
<path d="M27 110L29.4697 117.601H37.4616L30.996 122.298L33.4656 129.899L27 125.202L20.5344 129.899L23.004 122.298L16.5384 117.601H24.5303L27 110Z" fill="#FEFB3F"/>
<path d="M52 110L54.4697 117.601H62.4616L55.996 122.298L58.4656 129.899L52 125.202L45.5344 129.899L48.004 122.298L41.5384 117.601H49.5303L52 110Z" fill="#FEFB3F"/>
<path d="M77 110L79.4697 117.601H87.4616L80.996 122.298L83.4656 129.899L77 125.202L70.5344 129.899L73.004 122.298L66.5384 117.601H74.5303L77 110Z" fill="#FEFB3F"/>
<path d="M102 110L104.47 117.601H112.462L105.996 122.298L108.466 129.899L102 125.202L95.5344 129.899L98.004 122.298L91.5384 117.601H99.5303L102 110Z" fill="#FEFB3F"/>
<path d="M127 110L129.47 117.601H137.462L130.996 122.298L133.466 129.899L127 125.202L120.534 129.899L123.004 122.298L116.538 117.601H124.53L127 110Z" fill="#FEFB3F"/>
</g>
<defs>
<filter id="filter0_ddd_226_22924" x="0" y="0" width="174" height="159" filterUnits="userSpaceOnUse" color-interpolation-filters="sRGB">
<feFlood flood-opacity="0" result="BackgroundImageFix"/>
<feColorMatrix in="SourceAlpha" type="matrix" values="0 0 0 0 0 0 0 0 0 0 0 0 0 0 0 0 0 0 127 0" result="hardAlpha"/>
<feOffset/>
<feColorMatrix type="matrix" values="0 0 0 0 0 0 0 0 0 0 0 0 0 0 0 0 0 0 0.1 0"/>
<feBlend mode="normal" in2="BackgroundImageFix" result="effect1_dropShadow_226_22924"/>
<feColorMatrix in="SourceAlpha" type="matrix" values="0 0 0 0 0 0 0 0 0 0 0 0 0 0 0 0 0 0 127 0" result="hardAlpha"/>
<feOffset dy="3"/>
<feGaussianBlur stdDeviation="1.5"/>
<feColorMatrix type="matrix" values="0 0 0 0 0 0 0 0 0 0 0 0 0 0 0 0 0 0 0.09 0"/>
<feBlend mode="normal" in2="effect1_dropShadow_226_22924" result="effect2_dropShadow_226_22924"/>
<feColorMatrix in="SourceAlpha" type="matrix" values="0 0 0 0 0 0 0 0 0 0 0 0 0 0 0 0 0 0 127 0" result="hardAlpha"/>
<feOffset dy="7"/>
<feGaussianBlur stdDeviation="2"/>
<feColorMatrix type="matrix" values="0 0 0 0 0 0 0 0 0 0 0 0 0 0 0 0 0 0 0.05 0"/>
<feBlend mode="normal" in2="effect2_dropShadow_226_22924" result="effect3_dropShadow_226_22924"/>
<feBlend mode="normal" in="SourceGraphic" in2="effect3_dropShadow_226_22924" result="shape"/>
</filter>
<clipPath id="clip0_226_22924">
<rect width="29" height="29" fill="white" transform="translate(21.2141 30.2196) rotate(-18.0915)"/>
</clipPath>
</defs>
</svg>
