<svg width="291" height="236" viewBox="0 0 291 236" fill="none" xmlns="http://www.w3.org/2000/svg">
<g filter="url(#filter0_ddd_262_23150)">
<rect x="0.202637" y="88.6296" width="253" height="152" rx="22" transform="rotate(-20.3413 0.202637 88.6296)" fill="#4C60FF"/>
<rect x="1.8092" y="89.3672" width="250.5" height="149.5" rx="20.75" transform="rotate(-20.3413 1.8092 89.3672)" stroke="white" stroke-width="2.5"/>
</g>
<path d="M131.151 82.1953C130.973 81.1114 132.419 80.5753 132.991 81.5129L144.844 100.944C145.215 101.552 146.084 101.588 146.505 101.013L160.165 82.3128C160.816 81.4211 162.219 82.0877 161.94 83.1559L156.167 105.203C155.983 105.907 156.589 106.566 157.306 106.441L180.145 102.459C181.238 102.268 181.782 103.735 180.828 104.303L160.913 116.17C160.288 116.543 160.258 117.438 160.857 117.852L179.606 130.808C180.514 131.436 179.885 132.856 178.809 132.605L156.261 127.328C155.567 127.166 154.931 127.76 155.046 128.463L158.724 150.925C158.902 152.008 157.456 152.545 156.884 151.607L145.031 132.176C144.66 131.568 143.79 131.532 143.37 132.107L129.71 150.807C129.059 151.699 127.656 151.032 127.935 149.964L133.708 127.917C133.892 127.213 133.286 126.554 132.568 126.679L109.73 130.661C108.637 130.852 108.093 129.385 109.047 128.817L128.962 116.949C129.587 116.577 129.617 115.682 129.018 115.268L110.269 102.312C109.361 101.684 109.99 100.264 111.065 100.515L133.614 105.792C134.308 105.954 134.944 105.36 134.829 104.656L131.151 82.1953Z" fill="white"/>
<defs>
<filter id="filter0_ddd_262_23150" x="2.47217" y="6.95337" width="285.521" height="228.928" filterUnits="userSpaceOnUse" color-interpolation-filters="sRGB">
<feFlood flood-opacity="0" result="BackgroundImageFix"/>
<feColorMatrix in="SourceAlpha" type="matrix" values="0 0 0 0 0 0 0 0 0 0 0 0 0 0 0 0 0 0 127 0" result="hardAlpha"/>
<feOffset/>
<feColorMatrix type="matrix" values="0 0 0 0 0 0 0 0 0 0 0 0 0 0 0 0 0 0 0.1 0"/>
<feBlend mode="normal" in2="BackgroundImageFix" result="effect1_dropShadow_262_23150"/>
<feColorMatrix in="SourceAlpha" type="matrix" values="0 0 0 0 0 0 0 0 0 0 0 0 0 0 0 0 0 0 127 0" result="hardAlpha"/>
<feOffset dy="3"/>
<feGaussianBlur stdDeviation="1.5"/>
<feColorMatrix type="matrix" values="0 0 0 0 0 0 0 0 0 0 0 0 0 0 0 0 0 0 0.09 0"/>
<feBlend mode="normal" in2="effect1_dropShadow_262_23150" result="effect2_dropShadow_262_23150"/>
<feColorMatrix in="SourceAlpha" type="matrix" values="0 0 0 0 0 0 0 0 0 0 0 0 0 0 0 0 0 0 127 0" result="hardAlpha"/>
<feOffset dy="7"/>
<feGaussianBlur stdDeviation="2"/>
<feColorMatrix type="matrix" values="0 0 0 0 0 0 0 0 0 0 0 0 0 0 0 0 0 0 0.05 0"/>
<feBlend mode="normal" in2="effect2_dropShadow_262_23150" result="effect3_dropShadow_262_23150"/>
<feBlend mode="normal" in="SourceGraphic" in2="effect3_dropShadow_262_23150" result="shape"/>
</filter>
</defs>
</svg>
