<svg width="193" height="79" viewBox="0 0 193 79" fill="none" xmlns="http://www.w3.org/2000/svg">
<g filter="url(#filter0_ddd_226_22874)">
<rect x="4" width="185" height="68" rx="29" fill="white"/>
<circle cx="39" cy="34" r="23" fill="#F23F7F"/>
<path d="M32 36H34L36.5 30L38.5 42L41.5 33L43.595 39L45 36H47" stroke="white" stroke-width="0.904762" stroke-linecap="round" stroke-linejoin="round"/>
<path d="M45.625 24C42.918 24 40.5641 25.2207 39.1797 27.2665C37.7952 25.2207 35.4414 24 32.7344 24C30.6838 24.0024 28.7179 24.818 27.268 26.268C25.818 27.7179 25.0024 29.6838 25 31.7344C25 35.4984 27.3461 39.4159 31.9738 43.3759C34.0944 45.1829 36.385 46.7802 38.8136 48.1454C38.9261 48.2059 39.0519 48.2376 39.1797 48.2376C39.3075 48.2376 39.4332 48.2059 39.5458 48.1454C41.9744 46.7802 44.265 45.1829 46.3855 43.3759C51.0133 39.4159 53.3594 35.4984 53.3594 31.7344C53.357 29.6838 52.5414 27.7179 51.0914 26.268C49.6414 24.818 47.6756 24.0024 45.625 24ZM39.1797 46.5728C37.0643 45.352 26.5469 38.917 26.5469 31.7344C26.5486 30.0939 27.201 28.521 28.361 27.361C29.521 26.201 31.0939 25.5486 32.7344 25.5469C35.3486 25.5469 37.5439 26.9429 38.4643 29.1911C38.5225 29.3329 38.6217 29.4542 38.749 29.5396C38.8764 29.625 39.0263 29.6706 39.1797 29.6706C39.333 29.6706 39.4829 29.625 39.6103 29.5396C39.7377 29.4542 39.8368 29.3329 39.8951 29.1911C40.8155 26.9429 43.0108 25.5469 45.625 25.5469C47.2655 25.5486 48.8383 26.201 49.9983 27.361C51.1584 28.521 51.8108 30.0939 51.8125 31.7344C51.8125 38.917 41.295 45.352 39.1797 46.5728Z" fill="white"/>
<path d="M82.0795 15H81.0227C80.9602 14.696 80.8509 14.429 80.6946 14.1989C80.5412 13.9688 80.3537 13.7756 80.1321 13.6193C79.9134 13.4602 79.6705 13.3409 79.4034 13.2614C79.1364 13.1818 78.858 13.142 78.5682 13.142C78.0398 13.142 77.5611 13.2756 77.1321 13.5426C76.706 13.8097 76.3665 14.2031 76.1136 14.723C75.8636 15.2429 75.7386 15.8807 75.7386 16.6364C75.7386 17.392 75.8636 18.0298 76.1136 18.5497C76.3665 19.0696 76.706 19.4631 77.1321 19.7301C77.5611 19.9972 78.0398 20.1307 78.5682 20.1307C78.858 20.1307 79.1364 20.0909 79.4034 20.0114C79.6705 19.9318 79.9134 19.8139 80.1321 19.6577C80.3537 19.4986 80.5412 19.304 80.6946 19.0739C80.8509 18.8409 80.9602 18.5739 81.0227 18.2727H82.0795C82 18.7187 81.8551 19.1179 81.6449 19.4702C81.4347 19.8224 81.1733 20.1222 80.8608 20.3693C80.5483 20.6136 80.1974 20.7997 79.8082 20.9276C79.4219 21.0554 79.0085 21.1193 78.5682 21.1193C77.8239 21.1193 77.1619 20.9375 76.5824 20.5739C76.0028 20.2102 75.5469 19.6932 75.2145 19.0227C74.8821 18.3523 74.7159 17.5568 74.7159 16.6364C74.7159 15.7159 74.8821 14.9205 75.2145 14.25C75.5469 13.5795 76.0028 13.0625 76.5824 12.6989C77.1619 12.3352 77.8239 12.1534 78.5682 12.1534C79.0085 12.1534 79.4219 12.2173 79.8082 12.3452C80.1974 12.473 80.5483 12.6605 80.8608 12.9077C81.1733 13.152 81.4347 13.4503 81.6449 13.8026C81.8551 14.152 82 14.5511 82.0795 15ZM86.3952 21.1364C85.7646 21.1364 85.2205 20.9972 84.7631 20.7188C84.3086 20.4375 83.9577 20.0455 83.7106 19.5426C83.4663 19.0369 83.3441 18.4489 83.3441 17.7784C83.3441 17.108 83.4663 16.517 83.7106 16.0057C83.9577 15.4915 84.3015 15.0909 84.7418 14.804C85.185 14.5142 85.7021 14.3693 86.293 14.3693C86.6339 14.3693 86.9705 14.4261 87.3029 14.5398C87.6353 14.6534 87.9379 14.8381 88.2106 15.0938C88.4833 15.3466 88.7006 15.6818 88.8626 16.0994C89.0245 16.517 89.1055 17.0312 89.1055 17.642V18.0682H84.06V17.1989H88.0827C88.0827 16.8295 88.0089 16.5 87.8612 16.2102C87.7163 15.9205 87.5089 15.6918 87.239 15.5241C86.9719 15.3565 86.6566 15.2727 86.293 15.2727C85.8924 15.2727 85.5458 15.3722 85.2532 15.571C84.9634 15.767 84.7404 16.0227 84.5842 16.3381C84.4279 16.6534 84.3498 16.9915 84.3498 17.3523V17.9318C84.3498 18.4261 84.435 18.8452 84.6055 19.1889C84.7788 19.5298 85.0188 19.7898 85.3256 19.9688C85.6325 20.1449 85.989 20.233 86.3952 20.233C86.6594 20.233 86.8981 20.196 87.1112 20.1222C87.3271 20.0455 87.5131 19.9318 87.6694 19.7812C87.8256 19.6278 87.9464 19.4375 88.0316 19.2102L89.0032 19.483C88.9009 19.8125 88.729 20.1023 88.4876 20.3523C88.2461 20.5994 87.9478 20.7926 87.5927 20.9318C87.2376 21.0682 86.8384 21.1364 86.3952 21.1364ZM90.6353 23.4545V14.4545H91.6069V15.4943H91.7262C91.8001 15.3807 91.9023 15.2358 92.033 15.0597C92.1665 14.8807 92.3569 14.7216 92.604 14.5824C92.854 14.4403 93.1921 14.3693 93.6183 14.3693C94.1694 14.3693 94.6552 14.5071 95.0756 14.7827C95.4961 15.0582 95.8242 15.4489 96.06 15.9545C96.2958 16.4602 96.4137 17.0568 96.4137 17.7443C96.4137 18.4375 96.2958 19.0384 96.06 19.5469C95.8242 20.0526 95.4975 20.4446 95.0799 20.723C94.6623 20.9986 94.1808 21.1364 93.6353 21.1364C93.2148 21.1364 92.8782 21.0668 92.6254 20.9276C92.3725 20.7855 92.1779 20.625 92.0415 20.446C91.9052 20.2642 91.8001 20.1136 91.7262 19.9943H91.641V23.4545H90.6353ZM91.6239 17.7273C91.6239 18.2216 91.6964 18.6577 91.8413 19.0355C91.9862 19.4105 92.1978 19.7045 92.4762 19.9176C92.7546 20.1278 93.0955 20.233 93.4989 20.233C93.9194 20.233 94.2702 20.1222 94.5515 19.9006C94.8356 19.6761 95.0487 19.375 95.1907 18.9972C95.3356 18.6165 95.408 18.1932 95.408 17.7273C95.408 17.267 95.337 16.8523 95.195 16.483C95.0558 16.1108 94.8441 15.8168 94.56 15.6009C94.2788 15.3821 93.9251 15.2727 93.4989 15.2727C93.0898 15.2727 92.7461 15.3764 92.4677 15.5838C92.1893 15.7884 91.979 16.0753 91.837 16.4446C91.695 16.8111 91.6239 17.2386 91.6239 17.7273ZM97.2489 22.875V20.0625H97.7944C97.9279 19.9233 98.043 19.7727 98.1396 19.6108C98.2362 19.4489 98.32 19.2571 98.391 19.0355C98.4648 18.8111 98.5273 18.5384 98.5785 18.2173C98.6296 17.8935 98.6751 17.5028 98.7148 17.0455L98.9364 14.4545H103.096V20.0625H104.101V22.875H103.096V21H98.2546V22.875H97.2489ZM98.9364 20.0625H102.09V15.392H99.8739L99.7035 17.0455C99.6325 17.7301 99.5444 18.3281 99.4393 18.8395C99.3342 19.3509 99.1665 19.7585 98.9364 20.0625ZM108.18 21.1364C107.55 21.1364 107.006 20.9972 106.548 20.7188C106.094 20.4375 105.743 20.0455 105.496 19.5426C105.251 19.0369 105.129 18.4489 105.129 17.7784C105.129 17.108 105.251 16.517 105.496 16.0057C105.743 15.4915 106.087 15.0909 106.527 14.804C106.97 14.5142 107.487 14.3693 108.078 14.3693C108.419 14.3693 108.756 14.4261 109.088 14.5398C109.42 14.6534 109.723 14.8381 109.996 15.0938C110.268 15.3466 110.486 15.6818 110.648 16.0994C110.81 16.517 110.891 17.0312 110.891 17.642V18.0682H105.845V17.1989H109.868C109.868 16.8295 109.794 16.5 109.646 16.2102C109.501 15.9205 109.294 15.6918 109.024 15.5241C108.757 15.3565 108.442 15.2727 108.078 15.2727C107.678 15.2727 107.331 15.3722 107.038 15.571C106.749 15.767 106.526 16.0227 106.369 16.3381C106.213 16.6534 106.135 16.9915 106.135 17.3523V17.9318C106.135 18.4261 106.22 18.8452 106.391 19.1889C106.564 19.5298 106.804 19.7898 107.111 19.9688C107.418 20.1449 107.774 20.233 108.18 20.233C108.445 20.233 108.683 20.196 108.896 20.1222C109.112 20.0455 109.298 19.9318 109.455 19.7812C109.611 19.6278 109.732 19.4375 109.817 19.2102L110.788 19.483C110.686 19.8125 110.514 20.1023 110.273 20.3523C110.031 20.5994 109.733 20.7926 109.378 20.9318C109.023 21.0682 108.624 21.1364 108.18 21.1364ZM117.466 14.4545V21H116.46V14.4545H117.466ZM117.074 17.5739V18.5114C116.847 18.5966 116.621 18.6719 116.396 18.7372C116.172 18.7997 115.936 18.8494 115.689 18.8864C115.442 18.9205 115.17 18.9375 114.875 18.9375C114.134 18.9375 113.538 18.7372 113.089 18.3366C112.643 17.9361 112.42 17.3352 112.42 16.5341V14.4375H113.426V16.5341C113.426 16.8693 113.49 17.1449 113.618 17.3608C113.746 17.5767 113.919 17.7372 114.138 17.8423C114.357 17.9474 114.602 18 114.875 18C115.301 18 115.686 17.9616 116.03 17.8849C116.376 17.8054 116.724 17.7017 117.074 17.5739ZM123.692 17.267V18.2045H120.078V17.267H123.692ZM120.317 14.4545V21H119.311V14.4545H120.317ZM124.459 14.4545V21H123.453V14.4545H124.459ZM127.165 16.8239H129.04C129.807 16.8239 130.393 17.0185 130.8 17.4077C131.206 17.7969 131.409 18.2898 131.409 18.8864C131.409 19.2784 131.318 19.6349 131.136 19.956C130.955 20.2741 130.688 20.5284 130.335 20.7188C129.983 20.9062 129.551 21 129.04 21H126.295V14.4545H127.301V20.0625H129.04C129.438 20.0625 129.764 19.9574 130.02 19.7472C130.276 19.5369 130.403 19.267 130.403 18.9375C130.403 18.5909 130.276 18.3082 130.02 18.0895C129.764 17.8707 129.438 17.7614 129.04 17.7614H127.165V16.8239ZM132.449 21V14.4545H133.455V21H132.449ZM136.301 19.517L139.455 14.4545H140.614V21H139.608V15.9375L136.472 21H135.295V14.4545H136.301V19.517ZM138.79 12.2727H139.727C139.727 12.733 139.568 13.1094 139.25 13.402C138.932 13.6946 138.5 13.8409 137.955 13.8409C137.418 13.8409 136.99 13.6946 136.672 13.402C136.357 13.1094 136.199 12.733 136.199 12.2727H137.136C137.136 12.4943 137.197 12.6889 137.32 12.8565C137.445 13.0241 137.656 13.108 137.955 13.108C138.253 13.108 138.466 13.0241 138.594 12.8565C138.724 12.6889 138.79 12.4943 138.79 12.2727ZM145.831 23.4545V14.4545H146.802V15.4943H146.922C146.995 15.3807 147.098 15.2358 147.228 15.0597C147.362 14.8807 147.552 14.7216 147.799 14.5824C148.049 14.4403 148.387 14.3693 148.814 14.3693C149.365 14.3693 149.85 14.5071 150.271 14.7827C150.691 15.0582 151.02 15.4489 151.255 15.9545C151.491 16.4602 151.609 17.0568 151.609 17.7443C151.609 18.4375 151.491 19.0384 151.255 19.5469C151.02 20.0526 150.693 20.4446 150.275 20.723C149.858 20.9986 149.376 21.1364 148.831 21.1364C148.41 21.1364 148.074 21.0668 147.821 20.9276C147.568 20.7855 147.373 20.625 147.237 20.446C147.1 20.2642 146.995 20.1136 146.922 19.9943H146.836V23.4545H145.831ZM146.819 17.7273C146.819 18.2216 146.892 18.6577 147.037 19.0355C147.181 19.4105 147.393 19.7045 147.672 19.9176C147.95 20.1278 148.291 20.233 148.694 20.233C149.115 20.233 149.466 20.1222 149.747 19.9006C150.031 19.6761 150.244 19.375 150.386 18.9972C150.531 18.6165 150.603 18.1932 150.603 17.7273C150.603 17.267 150.532 16.8523 150.39 16.483C150.251 16.1108 150.039 15.8168 149.755 15.6009C149.474 15.3821 149.12 15.2727 148.694 15.2727C148.285 15.2727 147.941 15.3764 147.663 15.5838C147.385 15.7884 147.174 16.0753 147.032 16.4446C146.89 16.8111 146.819 17.2386 146.819 17.7273ZM154.149 19.517L157.302 14.4545H158.461V21H157.456V15.9375L154.319 21H153.143V14.4545H154.149V19.517ZM159.413 15.392V14.4545H164.731V15.392H162.583V21H161.577V15.392H159.413ZM169.777 19.6364L172.061 14.4545H173.016L170.186 21H169.368L166.59 14.4545H167.527L169.777 19.6364ZM167.203 14.4545V21H166.198V14.4545H167.203ZM172.351 21V14.4545H173.357V21H172.351Z" fill="black"/>
<path d="M88.1671 32.1765V56H81.6553V34.4635L84.7047 37.2906L74.4447 39.1012V34.0188L83.3388 32.1765H88.1671ZM91.9957 39.8635C92.1228 38.36 92.6628 36.9941 93.6157 35.7659C94.5686 34.5165 95.9451 33.5212 97.7451 32.78C99.5451 32.0388 101.737 31.6682 104.32 31.6682C106.523 31.6682 108.439 31.9435 110.07 32.4941C111.722 33.0447 112.992 33.8176 113.882 34.8129C114.792 35.8082 115.247 36.9835 115.247 38.3388C115.247 39.3976 114.919 40.3718 114.263 41.2612C113.627 42.1506 112.611 42.86 111.213 43.3894C109.837 43.8976 108.037 44.1412 105.813 44.12V43.4529C107.889 43.3682 109.667 43.5165 111.15 43.8976C112.632 44.2788 113.765 44.9035 114.549 45.7718C115.353 46.64 115.756 47.7412 115.756 49.0753C115.756 50.5153 115.29 51.7965 114.358 52.9188C113.426 54.0412 112.071 54.92 110.292 55.5553C108.535 56.1906 106.375 56.5082 103.812 56.5082C101.335 56.5082 99.1745 56.1694 97.3322 55.4918C95.4898 54.8141 94.0498 53.8506 93.0122 52.6012C91.9957 51.3306 91.4557 49.8482 91.3922 48.1541H97.9357C98.1051 49.2129 98.6557 50.0282 99.5875 50.6C100.54 51.1718 101.949 51.4576 103.812 51.4576C105.506 51.4576 106.798 51.2035 107.687 50.6953C108.598 50.1871 109.053 49.4776 109.053 48.5671C109.053 48.0376 108.905 47.5929 108.609 47.2329C108.333 46.8729 107.836 46.6082 107.116 46.4388C106.396 46.2482 105.39 46.1529 104.098 46.1529H100V41.7059H104.098C105.771 41.7059 106.936 41.4835 107.592 41.0388C108.27 40.5941 108.609 40.0012 108.609 39.26C108.609 38.4553 108.217 37.8306 107.433 37.3859C106.671 36.9412 105.517 36.7188 103.971 36.7188C102.319 36.7188 101.049 36.9941 100.159 37.5447C99.2698 38.0953 98.7404 38.8682 98.571 39.8635H91.9957ZM121.056 56L134.175 35.5435V37.3859H117.562V32.1765H140.179V37.4176L128.584 56H121.056Z" fill="#111010"/>
</g>
<defs>
<filter id="filter0_ddd_226_22874" x="0" y="0" width="193" height="79" filterUnits="userSpaceOnUse" color-interpolation-filters="sRGB">
<feFlood flood-opacity="0" result="BackgroundImageFix"/>
<feColorMatrix in="SourceAlpha" type="matrix" values="0 0 0 0 0 0 0 0 0 0 0 0 0 0 0 0 0 0 127 0" result="hardAlpha"/>
<feOffset/>
<feColorMatrix type="matrix" values="0 0 0 0 0 0 0 0 0 0 0 0 0 0 0 0 0 0 0.1 0"/>
<feBlend mode="normal" in2="BackgroundImageFix" result="effect1_dropShadow_226_22874"/>
<feColorMatrix in="SourceAlpha" type="matrix" values="0 0 0 0 0 0 0 0 0 0 0 0 0 0 0 0 0 0 127 0" result="hardAlpha"/>
<feOffset dy="3"/>
<feGaussianBlur stdDeviation="1.5"/>
<feColorMatrix type="matrix" values="0 0 0 0 0 0 0 0 0 0 0 0 0 0 0 0 0 0 0.09 0"/>
<feBlend mode="normal" in2="effect1_dropShadow_226_22874" result="effect2_dropShadow_226_22874"/>
<feColorMatrix in="SourceAlpha" type="matrix" values="0 0 0 0 0 0 0 0 0 0 0 0 0 0 0 0 0 0 127 0" result="hardAlpha"/>
<feOffset dy="7"/>
<feGaussianBlur stdDeviation="2"/>
<feColorMatrix type="matrix" values="0 0 0 0 0 0 0 0 0 0 0 0 0 0 0 0 0 0 0.05 0"/>
<feBlend mode="normal" in2="effect2_dropShadow_226_22874" result="effect3_dropShadow_226_22874"/>
<feBlend mode="normal" in="SourceGraphic" in2="effect3_dropShadow_226_22874" result="shape"/>
</filter>
</defs>
</svg>
