<svg width="156" height="156" viewBox="0 0 156 156" fill="none" xmlns="http://www.w3.org/2000/svg">
<path d="M78 0.68396L78.3293 76.2885L99.0441 3.57641L78.9633 76.4661L118.528 12.0392L79.526 76.8083L135.005 25.4448L79.9754 77.2896L147.255 42.7989L80.2784 77.8742L154.369 62.8144L80.4124 78.519L155.818 84.0069L80.3674 79.1759L151.496 104.805L80.1469 79.7964L141.724 123.665L79.7672 80.3344L127.225 139.189L79.2564 80.7499L109.075 150.226L78.6524 81.0123L88.621 155.957L78 81.102L67.379 155.957L77.3476 81.0123L46.9247 150.226L76.7436 80.7499L28.7751 139.189L76.2328 80.3344L14.2763 123.665L75.8531 79.7964L4.50365 104.805L75.6326 79.1759L0.181839 84.0069L75.5876 78.519L1.63144 62.8144L75.7216 77.8742L8.74495 42.7989L76.0246 77.2896L20.9948 25.4448L76.474 76.8083L37.4725 12.0392L77.0367 76.4661L56.9559 3.57641L77.6707 76.2885L78 0.68396Z" fill="black"/>
</svg>
