<svg width="296" height="257" viewBox="0 0 296 257" fill="none" xmlns="http://www.w3.org/2000/svg">
<g filter="url(#filter0_ddd_262_23031)">
<rect x="0.662842" y="118.994" width="253.084" height="152.062" rx="22" transform="rotate(-27.9103 0.662842 118.994)" fill="#111010"/>
<rect x="2.35255" y="119.513" width="250.584" height="149.562" rx="20.75" transform="rotate(-27.9103 2.35255 119.513)" stroke="white" stroke-width="2.5"/>
</g>
<path d="M119.928 73.9247L145.335 119.62L135.275 68.3136L147.411 119.169L151.566 67.0509L149.532 119.295L167.594 70.2303L151.539 119.988L182.169 77.616L153.286 121.197L194.212 88.6604L154.641 122.833L202.828 102.544L155.505 124.773L207.379 118.238L155.813 126.875L207.526 134.577L155.543 128.982L203.261 150.35L154.715 130.938L194.898 164.388L153.389 132.598L183.057 175.648L151.665 133.838L168.618 183.297L149.67 134.568L152.65 186.766L147.552 134.732L136.339 185.799L145.468 134.319L120.894 180.467L143.574 133.358L107.459 171.165L142.008 131.923L97.0331 158.584L140.888 130.118L90.3877 143.656L140.296 128.078L88.0162 127.489L140.277 125.954L90.0945 111.282L140.832 123.903L96.4684 96.2362L141.919 122.078L106.665 83.4682L143.458 120.614L119.928 73.9247Z" fill="white"/>
<defs>
<filter id="filter0_ddd_262_23031" x="4.39734" y="8.2627" width="287.355" height="248.371" filterUnits="userSpaceOnUse" color-interpolation-filters="sRGB">
<feFlood flood-opacity="0" result="BackgroundImageFix"/>
<feColorMatrix in="SourceAlpha" type="matrix" values="0 0 0 0 0 0 0 0 0 0 0 0 0 0 0 0 0 0 127 0" result="hardAlpha"/>
<feOffset/>
<feColorMatrix type="matrix" values="0 0 0 0 0 0 0 0 0 0 0 0 0 0 0 0 0 0 0.1 0"/>
<feBlend mode="normal" in2="BackgroundImageFix" result="effect1_dropShadow_262_23031"/>
<feColorMatrix in="SourceAlpha" type="matrix" values="0 0 0 0 0 0 0 0 0 0 0 0 0 0 0 0 0 0 127 0" result="hardAlpha"/>
<feOffset dy="3"/>
<feGaussianBlur stdDeviation="1.5"/>
<feColorMatrix type="matrix" values="0 0 0 0 0 0 0 0 0 0 0 0 0 0 0 0 0 0 0.09 0"/>
<feBlend mode="normal" in2="effect1_dropShadow_262_23031" result="effect2_dropShadow_262_23031"/>
<feColorMatrix in="SourceAlpha" type="matrix" values="0 0 0 0 0 0 0 0 0 0 0 0 0 0 0 0 0 0 127 0" result="hardAlpha"/>
<feOffset dy="7"/>
<feGaussianBlur stdDeviation="2"/>
<feColorMatrix type="matrix" values="0 0 0 0 0 0 0 0 0 0 0 0 0 0 0 0 0 0 0.05 0"/>
<feBlend mode="normal" in2="effect2_dropShadow_262_23031" result="effect3_dropShadow_262_23031"/>
<feBlend mode="normal" in="SourceGraphic" in2="effect3_dropShadow_262_23031" result="shape"/>
</filter>
</defs>
</svg>
