<svg width="256" height="128" viewBox="0 0 256 128" fill="none" xmlns="http://www.w3.org/2000/svg">
<path d="M26 9L28.2274 24.7529L41 27.5L28.2274 30.2471L26 46L23.7726 30.2471L11 27.5L23.7726 24.7529L26 9Z" fill="#111010"/>
<path d="M241.367 92L243.5 107.088L255.733 109.719L243.5 112.35L241.367 127.438L239.233 112.35L227 109.719L239.233 107.088L241.367 92Z" fill="#111010"/>
<path d="M9.51307 8.552L9.53892 8.72635L9.71157 8.76177L15.7469 10L9.71157 11.2382L9.53892 11.2737L9.51307 11.448L8.5 18.2825L7.48693 11.448L7.46108 11.2737L7.28843 11.2382L1.25306 10L7.28843 8.76177L7.46108 8.72635L7.48693 8.552L8.5 1.7175L9.51307 8.552Z" stroke="#111010" stroke-width="0.503667"/>
</svg>
