<svg width="158" height="156" viewBox="0 0 158 156" fill="none" xmlns="http://www.w3.org/2000/svg">
<circle cx="63" cy="92.6838" r="63" fill="#F23F7F"/>
<circle cx="95" cy="63.6838" r="63" fill="white"/>
<path d="M150.524 69.7798L143.722 69.2805L143.812 68.0584L149.591 68.4826L149.809 65.5071L144.031 65.0829L144.12 63.8608L150.922 64.3601L150.524 69.7798Z" fill="#111010"/>
<path d="M142.947 73.036C143.048 72.5468 143.244 72.1452 143.533 71.8309C143.822 71.5167 144.181 71.3006 144.609 71.1828C145.036 71.0671 145.509 71.0627 146.026 71.1696C146.543 71.2765 146.976 71.468 147.325 71.744C147.673 72.0222 147.918 72.3629 148.059 72.7661C148.2 73.1693 148.22 73.6155 148.119 74.1046C148.018 74.5937 147.823 74.9954 147.534 75.3097C147.244 75.6239 146.885 75.8386 146.455 75.9539C146.025 76.0713 145.552 76.0766 145.034 75.9697C144.517 75.8628 144.085 75.6704 143.739 75.3926C143.392 75.117 143.149 74.7776 143.007 74.3745C142.866 73.9713 142.846 73.5251 142.947 73.036ZM143.892 73.2379C143.837 73.5031 143.864 73.7399 143.973 73.9483C144.084 74.1571 144.254 74.3306 144.484 74.4687C144.713 74.6091 144.98 74.7107 145.285 74.7736C145.591 74.8369 145.878 74.8496 146.144 74.8117C146.412 74.7764 146.638 74.6849 146.823 74.5372C147.007 74.3894 147.127 74.183 147.182 73.9177C147.238 73.646 147.211 73.4046 147.1 73.1937C146.989 72.9848 146.818 72.81 146.587 72.6693C146.357 72.5311 146.088 72.4303 145.782 72.367C145.478 72.3041 145.193 72.2906 144.927 72.3263C144.66 72.3642 144.435 72.4571 144.25 72.6048C144.067 72.7551 143.948 72.9662 143.892 73.2379Z" fill="#111010"/>
<path d="M142.397 76.0929L143.341 76.4L143.285 76.5675C143.243 76.6938 143.236 76.8097 143.264 76.915C143.292 77.0202 143.363 77.1234 143.477 77.2244C143.593 77.3262 143.759 77.4307 143.976 77.538C144.193 77.6454 144.469 77.7618 144.804 77.8873L146.924 78.6878L145.746 82.2263L140.893 80.6108L141.261 79.505L145.176 80.8081L145.639 79.4149L144.101 78.8184C143.703 78.6648 143.367 78.5028 143.094 78.3323C142.822 78.1647 142.612 77.9847 142.463 77.7924C142.313 77.6022 142.223 77.3955 142.192 77.1723C142.163 76.9498 142.192 76.7079 142.279 76.4468L142.397 76.0929Z" fill="#111010"/>
<path d="M138.354 81.7166C138.424 81.5681 138.501 81.4363 138.585 81.3212C138.666 81.2072 138.739 81.1201 138.804 81.0601L139.534 81.7139C139.412 81.8507 139.324 81.9818 139.267 82.1072C139.21 82.2326 139.198 82.3605 139.229 82.4908C139.258 82.6223 139.344 82.7623 139.488 82.911L139.693 83.1224L145.207 83.6744L144.661 84.8307L140.665 84.2474L140.642 84.2956L143.63 87.0137L143.083 88.173L138.772 83.873C138.568 83.671 138.412 83.4576 138.305 83.2326C138.195 83.0067 138.143 82.7685 138.149 82.5182C138.151 82.2689 138.219 82.0017 138.354 81.7166Z" fill="#111010"/>
<path d="M140.048 93.2419L135.703 90.5439L136.314 89.5595L140.659 92.2574L140.048 93.2419ZM138.371 91.5618L137.534 91.0419C137.554 90.9001 137.588 90.7463 137.636 90.5802C137.685 90.4173 137.747 90.2505 137.821 90.0799C137.895 89.9112 137.979 89.7495 138.075 89.5949C138.436 89.014 138.851 88.6356 139.321 88.4596C139.792 88.2867 140.304 88.3723 140.859 88.7166L142.307 89.6159L141.699 90.5947L140.251 89.6954C140.064 89.5795 139.894 89.5194 139.74 89.5151C139.586 89.5109 139.441 89.5593 139.305 89.6604C139.171 89.7627 139.041 89.9148 138.916 90.1165C138.775 90.3429 138.664 90.5719 138.583 90.8037C138.502 91.0355 138.431 91.2882 138.371 91.5618Z" fill="#111010"/>
<path d="M135.447 93.6422L136.895 97.4141L136.124 98.383L132.123 95.1962L132.849 94.2846L135.576 96.4569L134.121 92.6881L134.895 91.7166L138.895 94.9034L138.171 95.8124L135.447 93.6422Z" fill="#111010"/>
<path d="M134.406 98.8524L135.103 99.5542L131.927 102.707L131.23 102.005L132.405 100.839L129.498 97.9116L130.325 97.0905L133.232 100.018L134.406 98.8524Z" fill="#111010"/>
<path d="M125.381 101.396C125.784 101.079 126.198 100.89 126.623 100.827C127.048 100.768 127.46 100.831 127.86 101.017C128.261 101.204 128.627 101.508 128.957 101.929C129.282 102.343 129.488 102.768 129.576 103.204C129.664 103.643 129.634 104.061 129.487 104.459C129.34 104.859 129.075 105.21 128.691 105.511C128.443 105.706 128.177 105.849 127.894 105.942C127.611 106.037 127.319 106.069 127.02 106.036C126.718 106.004 126.418 105.898 126.119 105.718C125.821 105.54 125.534 105.275 125.257 104.922L125.029 104.631L128.327 102.043L128.828 102.682L126.439 104.557C126.583 104.737 126.75 104.868 126.937 104.949C127.127 105.032 127.322 105.06 127.525 105.034C127.725 105.009 127.917 104.925 128.098 104.783C128.292 104.631 128.425 104.45 128.498 104.241C128.572 104.033 128.59 103.821 128.553 103.605C128.516 103.391 128.427 103.194 128.288 103.013L127.85 102.455C127.666 102.221 127.466 102.054 127.249 101.953C127.033 101.854 126.813 101.821 126.59 101.852C126.368 101.886 126.154 101.983 125.947 102.145C125.809 102.253 125.7 102.37 125.618 102.496C125.538 102.624 125.487 102.759 125.465 102.9C125.443 103.041 125.456 103.185 125.503 103.332L124.54 103.927C124.412 103.649 124.358 103.361 124.378 103.063C124.398 102.768 124.491 102.478 124.659 102.191C124.828 101.906 125.068 101.641 125.381 101.396Z" fill="#111010"/>
<path d="M120.677 104.836L123.131 109.324L122.073 109.902L121.083 108.091L120.697 108.302L120.338 110.851L119.064 111.548L119.522 108.436L116.593 107.07L117.872 106.37L120.027 107.389L120.544 107.106L119.619 105.415L120.677 104.836Z" fill="#111010"/>
<path d="M114.949 105.717L117.568 112.244L116.467 112.685L116.152 111.9L116.088 111.926C116.076 112.065 116.044 112.22 115.991 112.392C115.939 112.566 115.842 112.735 115.7 112.9C115.558 113.067 115.349 113.206 115.07 113.317C114.704 113.464 114.335 113.503 113.966 113.434C113.595 113.368 113.249 113.187 112.93 112.892C112.609 112.599 112.343 112.189 112.132 111.662C111.923 111.141 111.831 110.663 111.855 110.23C111.88 109.797 112.001 109.425 112.219 109.115C112.437 108.806 112.732 108.576 113.105 108.426C113.377 108.317 113.621 108.272 113.836 108.291C114.052 108.31 114.24 108.361 114.401 108.445C114.56 108.532 114.692 108.621 114.798 108.712L114.845 108.694L113.831 106.166L114.949 105.717ZM115.518 110.311C115.395 110.004 115.244 109.752 115.065 109.556C114.884 109.361 114.685 109.231 114.468 109.168C114.25 109.107 114.022 109.124 113.785 109.219C113.538 109.318 113.358 109.467 113.244 109.666C113.13 109.867 113.078 110.1 113.086 110.364C113.093 110.632 113.156 110.914 113.275 111.211C113.393 111.505 113.54 111.75 113.716 111.945C113.892 112.14 114.09 112.268 114.309 112.331C114.528 112.394 114.762 112.376 115.011 112.276C115.25 112.18 115.428 112.035 115.545 111.843C115.661 111.65 115.717 111.423 115.713 111.162C115.706 110.901 115.642 110.618 115.518 110.311Z" fill="#111010"/>
<path d="M108.167 110.04C108.662 109.906 109.117 109.893 109.533 110.001C109.947 110.112 110.302 110.331 110.598 110.658C110.894 110.987 111.112 111.41 111.252 111.926C111.389 112.434 111.414 112.906 111.325 113.341C111.234 113.78 111.044 114.154 110.752 114.463C110.462 114.774 110.081 114.993 109.609 115.121C109.305 115.203 109.005 115.232 108.708 115.206C108.41 115.184 108.129 115.099 107.866 114.951C107.601 114.805 107.366 114.59 107.16 114.308C106.956 114.027 106.795 113.671 106.677 113.238L106.581 112.881L110.627 111.785L110.84 112.569L107.908 113.363C107.971 113.586 108.073 113.771 108.214 113.919C108.356 114.069 108.525 114.171 108.722 114.226C108.916 114.282 109.125 114.279 109.348 114.219C109.586 114.154 109.779 114.04 109.927 113.875C110.077 113.713 110.176 113.525 110.227 113.311C110.275 113.1 110.271 112.884 110.213 112.663L110.027 111.978C109.95 111.691 109.83 111.459 109.67 111.282C109.51 111.107 109.32 110.99 109.102 110.932C108.885 110.876 108.649 110.882 108.397 110.951C108.227 110.997 108.08 111.062 107.956 111.146C107.832 111.232 107.733 111.336 107.658 111.458C107.583 111.579 107.538 111.717 107.524 111.87L106.405 112.042C106.396 111.737 106.459 111.451 106.593 111.184C106.727 110.92 106.926 110.689 107.192 110.49C107.459 110.294 107.784 110.144 108.167 110.04Z" fill="#111010"/>
<path d="M104.893 110.96L105.639 116.02L101.366 116.65L100.62 111.59L101.77 111.421L102.372 115.502L104.355 115.21L103.753 111.128L104.893 110.96Z" fill="#111010"/>
<path d="M99.2746 111.721L99.4325 116.834L98.2277 116.871L98.1639 114.807L97.7246 114.821L96.2507 116.932L94.7996 116.977L96.6159 114.409L94.6217 111.865L96.0795 111.82L97.5402 113.704L98.1293 113.686L98.0698 111.759L99.2746 111.721Z" fill="#111010"/>
<path d="M91.2024 111.528C91.7 111.572 92.1214 111.72 92.4668 111.971C92.8121 112.222 93.0679 112.554 93.2342 112.965C93.3982 113.377 93.4568 113.845 93.41 114.372C93.3632 114.898 93.2226 115.35 92.9884 115.728C92.752 116.106 92.4417 116.388 92.0574 116.575C91.673 116.761 91.2321 116.832 90.7346 116.788C90.2371 116.744 89.8157 116.596 89.4703 116.345C89.1249 116.093 88.8703 115.761 88.7065 115.347C88.5405 114.934 88.4809 114.464 88.5277 113.937C88.5745 113.411 88.716 112.96 88.9522 112.584C89.1863 112.209 89.4954 111.927 89.8797 111.741C90.264 111.554 90.7049 111.483 91.2024 111.528ZM91.1103 112.489C90.8405 112.465 90.6084 112.519 90.4139 112.651C90.2192 112.785 90.0664 112.974 89.9556 113.219C89.8425 113.463 89.7722 113.739 89.7447 114.049C89.7169 114.361 89.7372 114.647 89.8054 114.907C89.8713 115.169 89.9882 115.383 90.1561 115.55C90.324 115.716 90.5429 115.811 90.8127 115.835C91.089 115.86 91.3257 115.805 91.5226 115.671C91.7173 115.537 91.8713 115.347 91.9845 115.101C92.0954 114.856 92.1647 114.578 92.1924 114.267C92.2199 113.957 92.2007 113.672 92.1347 113.412C92.0664 113.152 91.9483 112.939 91.7804 112.772C91.61 112.608 91.3867 112.513 91.1103 112.489Z" fill="#111010"/>
<path d="M85.5803 110.7C86.0825 110.804 86.4947 110.998 86.8168 111.282C87.1362 111.568 87.3541 111.924 87.4702 112.349C87.5859 112.776 87.5896 113.252 87.4814 113.776C87.3749 114.291 87.1837 114.723 86.9076 115.072C86.6289 115.422 86.2899 115.67 85.8907 115.814C85.4909 115.96 85.052 115.984 84.5737 115.885C84.265 115.821 83.984 115.711 83.7307 115.555C83.4749 115.4 83.2628 115.197 83.0946 114.947C82.9242 114.696 82.8112 114.399 82.7555 114.054C82.6993 113.712 82.7166 113.321 82.8073 112.882L82.8821 112.52L86.9877 113.368L86.8233 114.164L83.8493 113.549C83.8047 113.776 83.8121 113.987 83.8714 114.183C83.9302 114.381 84.0349 114.549 84.1856 114.686C84.334 114.823 84.5213 114.915 84.7474 114.962C84.9887 115.012 85.2128 114.997 85.4196 114.917C85.6261 114.84 85.7999 114.717 85.9412 114.549C86.0798 114.383 86.1733 114.188 86.2218 113.964L86.3653 113.27C86.4255 112.979 86.4239 112.718 86.3605 112.487C86.2966 112.258 86.1805 112.069 86.0121 111.918C85.8432 111.77 85.6305 111.67 85.374 111.617C85.2023 111.581 85.0419 111.573 84.8929 111.592C84.7434 111.613 84.6077 111.661 84.4858 111.736C84.3638 111.81 84.2622 111.913 84.1808 112.043L83.1042 111.692C83.234 111.415 83.4191 111.188 83.6597 111.011C83.8977 110.836 84.1801 110.719 84.507 110.662C84.8334 110.607 85.1912 110.62 85.5803 110.7Z" fill="#111010"/>
<path d="M78.2528 110.421L75.0741 112.915L73.921 112.463L75.7894 107.702L76.8743 108.128L75.6007 111.373L78.7744 108.873L79.9306 109.327L78.0622 114.088L76.9804 113.664L78.2528 110.421Z" fill="#111010"/>
<path d="M72.0323 107.431L71.0031 106.823C71.0906 106.653 71.0921 106.483 71.0076 106.312C70.923 106.14 70.7708 105.99 70.551 105.86C70.3274 105.728 70.1104 105.666 69.8999 105.673C69.6864 105.681 69.5203 105.785 69.4018 105.986C69.3318 106.104 69.2998 106.226 69.306 106.351C69.3111 106.477 69.3524 106.597 69.4301 106.71C69.5078 106.823 69.6193 106.922 69.7645 107.008L70.4383 107.406L70.003 108.143L69.3293 107.745C69.1133 107.617 68.9205 107.571 68.751 107.605C68.5795 107.637 68.4491 107.729 68.3599 107.88C68.264 108.043 68.2453 108.209 68.304 108.381C68.3607 108.551 68.4923 108.697 68.6987 108.819C68.9051 108.941 69.1048 108.996 69.2978 108.983C69.4888 108.97 69.6306 108.891 69.7233 108.747L70.7468 109.352C70.5917 109.606 70.3837 109.783 70.1228 109.885C69.8601 109.985 69.5705 110.012 69.2542 109.967C68.936 109.921 68.6164 109.803 68.2953 109.613C67.9512 109.41 67.6845 109.183 67.4951 108.932C67.3057 108.681 67.1979 108.422 67.1717 108.157C67.1444 107.893 67.2041 107.637 67.3509 107.388C67.492 107.15 67.6834 106.996 67.9251 106.927C68.1657 106.86 68.4318 106.868 68.7236 106.95L68.7507 106.904C68.5825 106.792 68.4551 106.65 68.3686 106.478C68.281 106.307 68.2407 106.122 68.2478 105.923C68.2548 105.723 68.317 105.524 68.4344 105.325C68.5936 105.056 68.8088 104.868 69.0799 104.763C69.3499 104.659 69.6516 104.635 69.9851 104.69C70.3167 104.745 70.6564 104.874 71.0043 105.08C71.3426 105.28 71.6156 105.509 71.8233 105.769C72.028 106.029 72.1517 106.302 72.1944 106.587C72.2371 106.873 72.1831 107.154 72.0323 107.431Z" fill="#111010"/>
<path d="M69.6374 102.72L68.1437 104.697L67.8196 104.452C67.682 104.454 67.5404 104.49 67.395 104.561C67.2482 104.634 67.0967 104.735 66.9404 104.864C66.7809 104.994 66.6146 105.148 66.4412 105.326C66.2665 105.506 66.0831 105.702 65.891 105.916L64.694 107.257L61.7452 105.028L64.2306 101.74L63.5983 101.262L65.092 99.2853L66.0218 99.988L65.1264 101.173L67.7962 103.19L68.6916 102.006L69.6374 102.72ZM66.8314 103.705L65.1498 102.434L63.2506 104.947L64.446 105.851L65.0037 105.245C65.3657 104.84 65.6923 104.505 65.9836 104.241C66.275 103.977 66.5575 103.799 66.8314 103.705Z" fill="#111010"/>
<path d="M61.7108 97.9927C62.0678 98.342 62.3003 98.7233 62.4085 99.1366C62.5166 99.5498 62.5046 99.9683 62.3727 100.392C62.2392 100.814 61.9876 101.214 61.6181 101.592C61.2487 101.969 60.8536 102.23 60.4329 102.375C60.0106 102.517 59.5917 102.539 59.1762 102.44C58.7607 102.341 58.3744 102.117 58.0174 101.768C57.6604 101.418 57.4278 101.037 57.3197 100.624C57.2116 100.21 57.2251 99.7919 57.3602 99.3682C57.4937 98.9429 57.7452 98.5414 58.1147 98.1638C58.4842 97.7861 58.8793 97.5268 59.3 97.3856C59.7192 97.2429 60.1365 97.2211 60.552 97.3201C60.9675 97.4192 61.3538 97.6434 61.7108 97.9927ZM61.0307 98.6783C60.8371 98.4889 60.6233 98.3837 60.3891 98.3627C60.1534 98.3433 59.9154 98.393 59.6749 98.5118C59.4329 98.629 59.2032 98.7987 58.9858 99.0208C58.7669 99.2445 58.6015 99.4787 58.4896 99.7232C58.3745 99.9678 58.3293 100.208 58.3538 100.443C58.3783 100.678 58.4874 100.89 58.681 101.08C58.8793 101.274 59.0971 101.381 59.3344 101.402C59.5701 101.422 59.8097 101.372 60.0533 101.253C60.2938 101.134 60.5234 100.963 60.7423 100.739C60.9597 100.517 61.1251 100.285 61.2386 100.042C61.3506 99.7972 61.3943 99.5573 61.3697 99.3221C61.342 99.087 61.229 98.8724 61.0307 98.6783Z" fill="#111010"/>
<path d="M60.7496 94.447L55.2971 98.8886L54.5484 97.9696L55.2042 97.4354L55.16 97.3812C55.0244 97.4115 54.8666 97.4269 54.6866 97.4275C54.505 97.4294 54.3144 97.3871 54.115 97.3005C53.9139 97.2152 53.7187 97.0564 53.5294 96.8241C53.2798 96.5177 53.1331 96.1777 53.0892 95.804C53.0422 95.43 53.1122 95.0466 53.299 94.6538C53.4828 94.2608 53.7949 93.8848 54.2355 93.5259C54.671 93.1712 55.0992 92.9412 55.5202 92.8359C55.9412 92.7305 56.332 92.7358 56.6925 92.8515C57.0531 92.9672 57.3603 93.1808 57.614 93.4923C57.7991 93.7195 57.9148 93.9388 57.961 94.1503C58.0073 94.3617 58.0142 94.5565 57.9818 94.7346C57.9463 94.9124 57.9006 95.0656 57.8449 95.194L57.8765 95.2327L59.9882 93.5124L60.7496 94.447ZM56.5332 96.357C56.7897 96.1481 56.9848 95.929 57.1187 95.6997C57.2512 95.4686 57.3156 95.2401 57.3118 95.0141C57.305 94.7878 57.2209 94.5756 57.0597 94.3777C56.8914 94.1712 56.6955 94.0431 56.4717 93.9934C56.2463 93.9451 56.0085 93.9642 55.7582 94.0507C55.5049 94.1368 55.2543 94.2808 55.0064 94.4827C54.7603 94.6832 54.5705 94.8966 54.4369 95.1227C54.3033 95.3489 54.2391 95.5759 54.2443 95.8036C54.2494 96.0314 54.3368 96.2494 54.5064 96.4576C54.6691 96.6573 54.8597 96.784 55.0782 96.8379C55.2968 96.8918 55.5302 96.8778 55.7784 96.7958C56.0252 96.7122 56.2768 96.5659 56.5332 96.357Z" fill="#111010"/>
<path d="M54.6227 89.2903C54.8908 89.7117 55.0305 90.1359 55.0417 90.5629C55.0529 90.9899 54.946 91.3947 54.7211 91.7772C54.495 92.1579 54.159 92.4901 53.7133 92.7737C53.2675 93.0573 52.8234 93.2215 52.3809 93.2662C51.9372 93.3091 51.5243 93.235 51.1423 93.044C50.7602 92.8529 50.4351 92.5467 50.167 92.1253C49.8989 91.7039 49.7592 91.2797 49.748 90.8526C49.7368 90.4256 49.8452 90.0212 50.0732 89.6393C50.3 89.2556 50.6363 88.9219 51.082 88.6383C51.5278 88.3547 51.9716 88.192 52.4134 88.1503C52.854 88.1068 53.2654 88.1805 53.6474 88.3716C54.0295 88.5626 54.3545 88.8689 54.6227 89.2903ZM53.8044 89.803C53.659 89.5745 53.4747 89.4234 53.2515 89.3497C53.0264 89.2771 52.7833 89.2713 52.5221 89.3323C52.2597 89.3913 51.9975 89.5043 51.7353 89.6711C51.4712 89.8391 51.2568 90.0295 51.0922 90.2421C50.9244 90.4541 50.8258 90.6774 50.7961 90.912C50.7665 91.1466 50.8243 91.3781 50.9697 91.6066C51.1187 91.8407 51.3063 91.995 51.5326 92.0694C51.7576 92.142 52.0023 92.1481 52.2665 92.0879C52.5277 92.0269 52.7904 91.9125 53.0544 91.7444C53.3166 91.5776 53.5307 91.3888 53.6965 91.178C53.8612 90.9654 53.9583 90.7418 53.988 90.5071C54.0145 90.2718 53.9533 90.0371 53.8044 89.803Z" fill="#111010"/>
<path d="M52.7379 86.3978L48.1293 88.6158L47.1979 86.6806C46.9351 86.1345 46.8366 85.651 46.9025 85.23C46.9675 84.807 47.195 84.5017 47.5851 84.3139C47.8431 84.1898 48.0975 84.1782 48.3481 84.2793C48.5958 84.3793 48.8218 84.5699 49.0261 84.851C48.9296 84.5993 48.8885 84.3579 48.903 84.1268C48.9164 83.8937 48.9811 83.6852 49.0971 83.5013C49.213 83.3173 49.379 83.1734 49.5951 83.0694C49.8491 82.9472 50.1024 82.9078 50.3549 82.9513C50.6045 82.9938 50.8424 83.117 51.0687 83.321C51.292 83.524 51.4903 83.8054 51.6636 84.1655L52.7379 86.3978ZM51.3933 85.7922L50.8084 84.577C50.7122 84.377 50.5896 84.2426 50.4407 84.1739C50.2898 84.106 50.1324 84.1116 49.9683 84.1906C49.7783 84.282 49.6567 84.4107 49.6036 84.5767C49.5484 84.7437 49.569 84.9272 49.6653 85.1272L50.2501 86.3424L51.3933 85.7922ZM49.548 86.6803L49.096 85.7412C49.0248 85.5931 48.9427 85.4762 48.8496 85.3904C48.7546 85.3056 48.6546 85.254 48.5496 85.2355C48.4427 85.218 48.3342 85.2357 48.2242 85.2887C48.0661 85.3647 47.9734 85.4894 47.946 85.6628C47.9176 85.8341 47.9583 86.0338 48.068 86.2618L48.5099 87.1799L49.548 86.6803Z" fill="#111010"/>
<path d="M49.7221 79.179C49.8852 79.6511 49.9227 80.0961 49.8346 80.5141C49.7465 80.9321 49.5487 81.3011 49.2412 81.621C48.9329 81.9389 48.5291 82.1841 48.0298 82.3566C47.5304 82.5292 47.0603 82.5859 46.6195 82.5268C46.1779 82.4656 45.7935 82.2978 45.4662 82.0234C45.1388 81.749 44.8936 81.3757 44.7305 80.9036C44.5674 80.4315 44.5299 79.9865 44.618 79.5685C44.7061 79.1505 44.9054 78.7823 45.2157 78.4637C45.5253 78.143 45.9298 77.8964 46.4292 77.7238C46.9285 77.5513 47.3979 77.496 47.8374 77.5579C48.2761 77.6177 48.6591 77.7848 48.9864 78.0592C49.3138 78.3337 49.559 78.7069 49.7221 79.179ZM48.8072 79.4881C48.7188 79.2321 48.5745 79.0424 48.3745 78.9189C48.1724 78.7961 47.9373 78.7341 47.6691 78.7328C47.4001 78.7294 47.1188 78.7785 46.8251 78.88C46.5292 78.9822 46.2766 79.1176 46.0671 79.2863C45.8548 79.4536 45.707 79.6479 45.6238 79.8692C45.5406 80.0906 45.5432 80.3293 45.6316 80.5852C45.7222 80.8475 45.869 81.0411 46.0718 81.1659C46.2739 81.2887 46.5105 81.3514 46.7815 81.3541C47.0497 81.3553 47.3317 81.3049 47.6276 81.2027C47.9213 81.1012 48.1733 80.9671 48.3835 80.8006C48.5929 80.6319 48.7393 80.4369 48.8225 80.2156C48.9029 79.9928 48.8978 79.7503 48.8072 79.4881Z" fill="#111010"/>
<path d="M48.183 73.7341C48.2925 74.235 48.283 74.6905 48.1545 75.1003C48.0233 75.5084 47.7871 75.8521 47.4459 76.1312C47.1025 76.4107 46.6695 76.6076 46.1469 76.7219C45.6329 76.8342 45.1605 76.8352 44.7296 76.7249C44.2961 76.6129 43.9323 76.4038 43.6381 76.0977C43.3418 75.7921 43.1415 75.4007 43.0373 74.9236C42.9699 74.6157 42.9563 74.3142 42.9963 74.0191C43.0337 73.7223 43.1324 73.4463 43.2925 73.1909C43.4521 72.9333 43.678 72.709 43.9702 72.5178C44.2603 72.3272 44.6244 72.184 45.0625 72.0882L45.4235 72.0093L46.3187 76.1048L45.525 76.2783L44.8765 73.3116C44.6515 73.3631 44.4615 73.4557 44.3067 73.5895C44.1497 73.7238 44.039 73.8878 43.9745 74.0814C43.9096 74.2728 43.9018 74.4813 43.9511 74.7068C44.0037 74.9476 44.1084 75.1462 44.2654 75.3028C44.4201 75.4598 44.603 75.5687 44.8139 75.6294C45.0223 75.6884 45.2383 75.6945 45.4622 75.6479L46.1551 75.4964C46.4457 75.4329 46.6835 75.3253 46.8684 75.1735C47.0512 75.0222 47.1771 74.839 47.246 74.624C47.3127 74.4095 47.3181 74.1742 47.2621 73.9183C47.2247 73.747 47.1669 73.5972 47.0889 73.4688C47.0087 73.3409 46.9097 73.2364 46.792 73.1553C46.6743 73.0743 46.5393 73.0231 46.3869 73.0019L46.2702 71.8753C46.576 71.8812 46.8587 71.958 47.1182 72.1058C47.3751 72.2519 47.5961 72.4626 47.7813 72.738C47.9643 73.0139 48.0982 73.3459 48.183 73.7341Z" fill="#111010"/>
<path d="M43.0056 68.3928L42.0177 68.4386L41.8106 63.9681L42.7984 63.9224L42.8751 65.5755L46.9963 65.3845L47.0502 66.5487L42.929 66.7397L43.0056 68.3928Z" fill="#111010"/>
<path d="M47.162 59.9752C47.1264 60.4867 46.9893 60.9211 46.7509 61.2784C46.5103 61.6333 46.1872 61.8967 45.7813 62.0688C45.3733 62.2407 44.9024 62.3081 44.3687 62.2709C43.8439 62.2344 43.3902 62.1027 43.0076 61.8759C42.623 61.6466 42.3325 61.3438 42.1362 60.9674C41.9376 60.5909 41.8553 60.1591 41.8892 59.6719C41.9111 59.3574 41.9826 59.0642 42.1039 58.7922C42.2231 58.5179 42.3954 58.2807 42.6207 58.0805C42.8462 57.8781 43.126 57.7262 43.4602 57.6249C43.7921 57.5233 44.1818 57.4881 44.6291 57.5192L44.9978 57.5449L44.7069 61.727L43.8964 61.6707L44.1071 58.6412C43.8767 58.6274 43.6683 58.6629 43.4822 58.7479C43.2938 58.8327 43.1415 58.959 43.0253 59.1267C42.9092 59.2922 42.8431 59.4901 42.8271 59.7204C42.81 59.9662 42.8548 60.1863 42.9614 60.3806C43.0658 60.5748 43.2108 60.7306 43.3962 60.8481C43.5796 60.9632 43.7852 61.0298 44.0132 61.0479L44.7207 61.0971C45.0175 61.1178 45.2759 61.0812 45.496 60.9875C45.714 60.8936 45.8862 60.7532 46.0127 60.5661C46.137 60.379 46.2082 60.1547 46.2264 59.8934C46.2385 59.7185 46.2252 59.5584 46.1863 59.4133C46.1452 59.268 46.0796 59.14 45.9894 59.0291C45.8992 58.9182 45.784 58.8312 45.6437 58.7681L45.8481 57.6541C46.1399 57.7456 46.3896 57.8987 46.5972 58.1134C46.8027 58.3258 46.9557 58.5901 47.056 58.9064C47.1542 59.2225 47.1895 59.5788 47.162 59.9752Z" fill="#111010"/>
<path d="M47.3013 56.8042L46.3253 56.6248L46.3584 56.4515C46.3834 56.3206 46.3749 56.2049 46.3331 56.1043C46.2913 56.0036 46.2073 55.9108 46.0811 55.8257C45.9528 55.7402 45.774 55.6587 45.5448 55.581C45.3155 55.5034 45.0266 55.4246 44.678 55.3445L42.4707 54.832L43.1694 51.1686L48.1934 52.1269L47.9751 53.2717L43.9225 52.4987L43.6474 53.9411L45.2515 54.3285C45.6664 54.4279 46.0205 54.5441 46.3138 54.6769C46.6054 54.807 46.8377 54.9576 47.0108 55.1284C47.1842 55.2971 47.3011 55.49 47.3614 55.7072C47.4195 55.9239 47.4227 56.1675 47.3712 56.4379L47.3013 56.8042Z" fill="#111010"/>
<path d="M49.2521 48.7945C49.1015 49.2707 48.8662 49.6503 48.5463 49.9333C48.2263 50.2163 47.8475 50.3945 47.4098 50.468C46.9728 50.5393 46.5025 50.4954 45.9987 50.3361C45.495 50.1768 45.0838 49.942 44.7651 49.6317C44.4472 49.3193 44.2387 48.9553 44.1395 48.5398C44.0404 48.1243 44.0662 47.6785 44.2168 47.2022C44.3674 46.726 44.6027 46.3464 44.9226 46.0634C45.2426 45.7804 45.6221 45.6036 46.0612 45.5329C46.501 45.4601 46.9728 45.5034 47.4765 45.6627C47.9803 45.822 48.3901 46.0575 48.7059 46.3692C49.0224 46.6788 49.2302 47.0414 49.3294 47.4569C49.4285 47.8724 49.4027 48.3183 49.2521 48.7945ZM48.3334 48.497C48.4151 48.2388 48.4124 48.0005 48.3255 47.7821C48.2365 47.563 48.0847 47.373 47.8702 47.212C47.6563 47.0489 47.4012 46.9205 47.1049 46.8268C46.8065 46.7325 46.5229 46.6905 46.2542 46.701C45.984 46.7087 45.7495 46.7766 45.5507 46.9046C45.3519 47.0327 45.2116 47.2258 45.13 47.484C45.0463 47.7486 45.0487 47.9915 45.137 48.2127C45.2261 48.4317 45.3786 48.6231 45.5946 48.7869C45.8091 48.9479 46.0656 49.0755 46.364 49.1699C46.6603 49.2636 46.9425 49.3063 47.2106 49.2979C47.4793 49.2874 47.7131 49.2182 47.9119 49.0901C48.1092 48.9593 48.2498 48.7616 48.3334 48.497Z" fill="#111010"/>
<path d="M46.8423 36.3935L47.7271 36.3763C47.7737 36.5674 47.7805 36.7581 47.7477 36.9484C47.7148 37.1387 47.6495 37.3484 47.5517 37.5777C47.453 37.804 47.3289 38.0697 47.1797 38.3749C47.0131 38.7185 46.9348 39.0289 46.9447 39.306C46.9546 39.5832 47.0525 39.8419 47.2386 40.0822C47.4226 40.3214 47.6941 40.5557 48.053 40.785L48.0788 40.7346C47.8734 40.4494 47.7636 40.141 47.7494 39.8092C47.7351 39.4775 47.8167 39.1388 47.9942 38.7932C48.1879 38.4161 48.4438 38.127 48.7617 37.9259C49.0786 37.7219 49.4386 37.621 49.8417 37.6234C50.2457 37.6239 50.6748 37.7407 51.129 37.974C51.597 38.2144 51.9576 38.5107 52.211 38.8629C52.4623 39.2141 52.5976 39.5993 52.6169 40.0185C52.6372 40.4357 52.5337 40.8655 52.3065 41.3078C52.0803 41.7481 51.7878 42.082 51.4289 42.3094C51.069 42.5339 50.6549 42.6381 50.1864 42.6221C49.717 42.6031 49.2049 42.4511 48.65 42.166L48.2413 41.9561C47.1711 41.4063 46.4748 40.7966 46.1524 40.1269C45.8301 39.4573 45.8653 38.7279 46.2581 37.9389C46.3739 37.7039 46.4799 37.4951 46.5762 37.3124C46.6735 37.1278 46.7478 36.9613 46.799 36.813C46.8503 36.6646 46.8647 36.5248 46.8423 36.3935ZM51.4506 40.8606C51.5632 40.6415 51.6043 40.423 51.5739 40.2052C51.5415 39.9865 51.4425 39.7809 51.2768 39.5884C51.1121 39.394 50.8866 39.2233 50.6003 39.0762C50.3179 38.9312 50.0557 38.8514 49.8136 38.8369C49.5695 38.8213 49.3541 38.8666 49.1673 38.9728C48.9804 39.079 48.8302 39.2427 48.7166 39.4638C48.6314 39.6297 48.5845 39.794 48.5758 39.9567C48.567 40.1194 48.5961 40.2766 48.663 40.4282C48.7298 40.5799 48.8325 40.7225 48.9711 40.856C49.1096 40.9896 49.2845 41.1131 49.4957 41.2266C49.9242 41.4467 50.3145 41.5249 50.6667 41.4612C51.0169 41.3965 51.2782 41.1963 51.4506 40.8606Z" fill="#111010"/>
<path d="M53.5346 38.6907L52.7056 38.1453L52.8036 37.9985C52.8775 37.8877 52.9149 37.7779 52.9156 37.6689C52.9162 37.5599 52.8751 37.4417 52.792 37.3142C52.7072 37.1854 52.5743 37.0407 52.3934 36.8798C52.2125 36.719 51.9771 36.5339 51.6872 36.3243L49.854 34.9923L51.9247 31.8906L56.1785 34.7305L55.5314 35.6998L52.1001 33.409L51.2848 34.6303L52.6112 35.612C52.9546 35.8653 53.2355 36.1102 53.4539 36.3467C53.6717 36.5802 53.827 36.8094 53.9198 37.0342C54.0139 37.2571 54.0464 37.4803 54.0173 37.7038C53.9864 37.926 53.8945 38.1516 53.7416 38.3805L53.5346 38.6907Z" fill="#111010"/>
<path d="M57.9667 32.6304C57.7566 32.8772 57.5233 33.062 57.2671 33.1849C57.0105 33.3047 56.7463 33.3479 56.4743 33.3146C56.2038 33.2796 55.941 33.1534 55.6858 32.9361C55.4661 32.749 55.3189 32.5537 55.2444 32.3502C55.1698 32.1467 55.1491 31.9382 55.1824 31.7245C55.2157 31.5108 55.2852 31.2974 55.3909 31.0842C55.4964 30.8679 55.6196 30.6564 55.7605 30.4499C55.9312 30.2016 56.0677 29.9985 56.17 29.8407C56.2706 29.6815 56.328 29.5525 56.3421 29.4537C56.356 29.3518 56.319 29.2634 56.2311 29.1886L56.2159 29.1756C56.0249 29.013 55.8288 28.9437 55.6276 28.9677C55.4264 28.9917 55.2351 29.1102 55.0537 29.3231C54.8623 29.5479 54.7595 29.7679 54.7452 29.9832C54.7324 30.1968 54.7734 30.3833 54.868 30.5427L54.0166 31.2959C53.8376 31.0268 53.7348 30.7469 53.7084 30.4561C53.6802 30.1639 53.7222 29.8715 53.8342 29.5791C53.9445 29.2852 54.1155 29.0023 54.3472 28.7302C54.507 28.5426 54.688 28.3745 54.8902 28.226C55.0925 28.0775 55.3098 27.9696 55.5422 27.9021C55.7729 27.8333 56.014 27.8257 56.2656 27.8796C56.5185 27.9318 56.7743 28.068 57.0329 28.2882L59.639 30.5075L58.8877 31.3898L58.3528 30.9342L58.3269 30.9646C58.3875 31.1125 58.422 31.2775 58.4303 31.4595C58.4383 31.6384 58.4063 31.8283 58.3342 32.0294C58.2619 32.2273 58.1394 32.4276 57.9667 32.6304ZM57.4953 31.8179C57.6522 31.6336 57.7519 31.443 57.7943 31.2459C57.8351 31.0474 57.8256 30.8599 57.7658 30.6836C57.7074 30.5057 57.6064 30.3555 57.4628 30.2331L57.0039 29.8424C57.0031 29.8913 56.9833 29.959 56.9446 30.0455C56.9073 30.1304 56.8603 30.2216 56.8036 30.319C56.7468 30.4165 56.6891 30.5117 56.6304 30.6046C56.5717 30.6975 56.5207 30.7779 56.4773 30.846C56.3793 30.9987 56.3054 31.1471 56.2555 31.2913C56.2056 31.4354 56.1921 31.5711 56.2149 31.6984C56.236 31.8243 56.3057 31.9376 56.424 32.0384C56.593 32.1823 56.7732 32.2293 56.9644 32.1793C57.1557 32.1293 57.3327 32.0088 57.4953 31.8179Z" fill="#111010"/>
<path d="M59.6987 23.2793L60.3774 23.9986L58.774 25.5114L61.6053 28.5122L60.7479 29.3212L57.238 25.601L59.6987 23.2793Z" fill="#111010"/>
<path d="M65.9602 24.874C65.5628 25.1766 65.1518 25.3514 64.7273 25.3984C64.3027 25.4455 63.8904 25.373 63.4903 25.181C63.0919 24.9877 62.7327 24.6808 62.4127 24.2605C62.0926 23.8402 61.8917 23.4114 61.8099 22.9742C61.7299 22.5357 61.769 22.1181 61.9273 21.7213C62.0856 21.3246 62.3634 20.9749 62.7608 20.6723C63.1582 20.3697 63.5691 20.1949 63.9937 20.1478C64.4182 20.1008 64.8304 20.1748 65.23 20.3699C65.6315 20.5637 65.9923 20.8707 66.3123 21.2911C66.6324 21.7114 66.8318 22.14 66.9104 22.5767C66.9909 23.0121 66.9519 23.4282 66.7937 23.825C66.6354 24.2217 66.3576 24.5714 65.9602 24.874ZM65.3805 24.1017C65.5959 23.9376 65.731 23.7413 65.7857 23.5126C65.8391 23.2823 65.8245 23.0395 65.7418 22.7844C65.6609 22.5279 65.5263 22.276 65.338 22.0288C65.1484 21.7797 64.9407 21.5821 64.715 21.4359C64.4897 21.2866 64.2589 21.207 64.0227 21.1972C63.7864 21.1874 63.5605 21.2645 63.345 21.4286C63.1243 21.5967 62.9863 21.7966 62.9312 22.0283C62.8778 22.2587 62.8922 22.503 62.9745 22.7613C63.0571 23.0164 63.1933 23.2685 63.3829 23.5175C63.5712 23.7648 63.7773 23.9622 64.0013 24.1097C64.227 24.2559 64.458 24.3339 64.6943 24.3438C64.931 24.3505 65.1597 24.2698 65.3805 24.1017Z" fill="#111010"/>
<path d="M68.954 24.2632L67.7097 22.121L68.061 21.917C68.1127 21.7894 68.1339 21.6448 68.1248 21.4833C68.1146 21.3198 68.08 21.1409 68.0211 20.9466C67.9629 20.7494 67.8854 20.5364 67.7886 20.3077C67.6905 20.0771 67.5802 19.8318 67.4575 19.572L66.6844 17.9493L69.8804 16.0928L71.951 19.6575L72.6362 19.2594L73.8806 21.4017L72.8728 21.987L72.1269 20.7028L69.2331 22.3837L69.979 23.6678L68.954 24.2632ZM69.1321 21.2948L70.9547 20.2361L69.3726 17.5123L68.0768 18.2649L68.4192 19.0134C68.6528 19.504 68.835 19.9348 68.9657 20.3056C69.0963 20.6764 69.1518 21.0061 69.1321 21.2948Z" fill="#111010"/>
<path d="M75.6888 19.0458C75.3903 19.1721 75.099 19.2326 74.8148 19.2275C74.5318 19.2195 74.2762 19.1395 74.0481 18.9878C73.8221 18.8351 73.6438 18.6044 73.5132 18.2957C73.4008 18.0299 73.3569 17.7894 73.3815 17.5741C73.4061 17.3588 73.4813 17.1631 73.6068 16.9871C73.7324 16.811 73.8903 16.6515 74.0805 16.5084C74.2718 16.3624 74.4768 16.2287 74.6954 16.1073C74.9593 15.9619 75.1723 15.8417 75.3346 15.7465C75.4959 15.6494 75.6051 15.5598 75.662 15.4779C75.7201 15.393 75.7267 15.2975 75.6817 15.1911L75.674 15.1727C75.5762 14.9417 75.4321 14.7918 75.2415 14.723C75.0509 14.6541 74.8268 14.6742 74.5692 14.7832C74.2972 14.8982 74.1066 15.0487 73.9973 15.2347C73.89 15.4199 73.843 15.6049 73.8561 15.7898L72.7572 16.081C72.7179 15.7602 72.7517 15.4639 72.8585 15.1922C72.9645 14.9184 73.1331 14.6759 73.3643 14.4648C73.5948 14.2517 73.8746 14.0755 74.2037 13.9363C74.4307 13.8403 74.6678 13.7713 74.9152 13.7293C75.1626 13.6874 75.4052 13.6884 75.6432 13.7324C75.8803 13.7743 76.0991 13.8757 76.2998 14.0367C76.5025 14.1968 76.67 14.4333 76.8023 14.7461L78.1357 17.8988L77.0685 18.3502L76.7948 17.7031L76.758 17.7187C76.7459 17.878 76.7027 18.0409 76.6285 18.2073C76.5554 18.3708 76.4416 18.5262 76.2869 18.6735C76.1335 18.818 75.9341 18.9421 75.6888 19.0458ZM75.632 18.1081C75.8549 18.0139 76.0295 17.8882 76.1559 17.7311C76.2814 17.572 76.357 17.4002 76.3826 17.2158C76.4103 17.0305 76.3874 16.851 76.3139 16.6772L76.0791 16.1222C76.0565 16.1655 76.0084 16.2171 75.935 16.2771C75.8636 16.3362 75.7807 16.3966 75.6862 16.4583C75.5918 16.5199 75.4975 16.5791 75.4034 16.6358C75.3092 16.6924 75.2275 16.7415 75.1582 16.7828C75.0021 16.8753 74.8695 16.9748 74.7603 17.0813C74.651 17.1878 74.578 17.303 74.5413 17.427C74.5037 17.5489 74.5152 17.6815 74.5757 17.8246C74.6622 18.029 74.8021 18.1518 74.9955 18.193C75.1888 18.2341 75.401 18.2058 75.632 18.1081Z" fill="#111010"/>
<path d="M80.3089 19.1161L78.3667 12.3569L79.5061 12.0296L79.7396 12.8425L79.8068 12.8232C79.8323 12.6865 79.88 12.5353 79.9502 12.3697C80.0198 12.2019 80.1336 12.0433 80.2917 11.8939C80.4491 11.7425 80.6718 11.6253 80.9598 11.5426C81.3396 11.4334 81.7099 11.4321 82.0708 11.5386C82.4332 11.6424 82.7583 11.8573 83.046 12.1834C83.3353 12.5068 83.5584 12.9416 83.7153 13.4878C83.8704 14.0276 83.9137 14.5118 83.8451 14.9403C83.7765 15.3688 83.6182 15.7261 83.3701 16.0122C83.122 16.2983 82.8049 16.4968 82.4187 16.6078C82.1371 16.6887 81.89 16.7089 81.6774 16.6684C81.4648 16.6278 81.2829 16.5576 81.1319 16.4579C80.9823 16.3553 80.8594 16.2532 80.7632 16.1515L80.7152 16.1653L81.4674 18.7832L80.3089 19.1161ZM80.2091 14.4884C80.3004 14.8063 80.4252 15.0718 80.5835 15.285C80.7439 15.4976 80.9288 15.6466 81.1381 15.732C81.3489 15.8146 81.577 15.8207 81.8224 15.7502C82.0784 15.6766 82.2732 15.5467 82.4068 15.3605C82.5397 15.1722 82.6156 14.9459 82.6345 14.6819C82.6548 14.415 82.6208 14.128 82.5325 13.8207C82.4449 13.5156 82.3233 13.2573 82.1678 13.0456C82.0122 12.8339 81.8287 12.6857 81.6173 12.6009C81.4059 12.5161 81.1711 12.5108 80.9129 12.585C80.6654 12.6561 80.474 12.7816 80.3385 12.9614C80.2031 13.1412 80.1243 13.3613 80.1021 13.6218C80.0821 13.8816 80.1177 14.1705 80.2091 14.4884Z" fill="#111010"/>
<path d="M87.921 15.3195L87.2396 11.2404L86.1623 11.4204C85.8886 11.4661 85.6891 11.5647 85.5636 11.7162C85.4381 11.8677 85.3922 12.0374 85.4258 12.2253C85.4551 12.414 85.55 12.5579 85.7106 12.6571C85.8712 12.7563 86.0818 12.7842 86.3424 12.7407L87.8335 12.4916L87.9783 13.3586L86.4872 13.6077C86.0843 13.675 85.7256 13.6697 85.411 13.5917C85.0964 13.5137 84.8409 13.3718 84.6444 13.1661C84.448 12.9603 84.3238 12.702 84.2719 12.3911C84.2178 12.067 84.2507 11.7723 84.3707 11.507C84.4925 11.239 84.6913 11.0145 84.9671 10.8334C85.2448 10.6497 85.5894 10.5235 86.001 10.4548L88.1917 10.0888L89.0344 15.1335L87.921 15.3195ZM84.6629 15.8638L85.6396 13.0404L86.8121 12.8445L85.8322 15.6685L84.6629 15.8638Z" fill="#111010"/>
<path d="M96.681 11.683L96.6772 12.672L93.9534 12.6614L93.9572 11.6725L96.681 11.683ZM94.3381 9.61611L94.3184 14.7307L93.1563 14.7262L93.176 9.61162L94.3381 9.61611ZM97.4781 9.62823L97.4584 14.7428L96.2996 14.7383L96.3193 9.62376L97.4781 9.62823Z" fill="#111010"/>
<path d="M100.288 15.062C99.9667 15.0234 99.6837 14.9313 99.4396 14.7857C99.1979 14.6382 99.0158 14.4419 98.8932 14.1969C98.7728 13.9522 98.7325 13.6634 98.7725 13.3306C98.8069 13.044 98.8882 12.8135 99.0165 12.6388C99.1448 12.4642 99.3071 12.3316 99.5036 12.2412C99.7 12.1507 99.9163 12.0906 100.152 12.0608C100.391 12.0291 100.635 12.0148 100.885 12.018C101.187 12.0229 101.431 12.0243 101.619 12.0223C101.808 12.0181 101.947 11.9945 102.037 11.9517C102.129 11.9069 102.183 11.8272 102.196 11.7126L102.199 11.6928C102.229 11.4437 102.178 11.242 102.047 11.0876C101.915 10.9332 101.711 10.8394 101.433 10.806C101.14 10.7708 100.9 10.8068 100.713 10.914C100.528 11.0215 100.395 11.1587 100.314 11.3257L99.216 11.0329C99.3412 10.7349 99.5176 10.4945 99.7453 10.3116C99.9732 10.1266 100.24 9.99985 100.546 9.93145C100.851 9.86084 101.182 9.84684 101.537 9.88944C101.781 9.91881 102.021 9.9767 102.257 10.0631C102.492 10.1495 102.703 10.2709 102.887 10.4272C103.072 10.5813 103.212 10.7781 103.306 11.0174C103.402 11.2571 103.43 11.5455 103.39 11.8827L102.982 15.2814L101.831 15.1433L101.915 14.4457L101.876 14.4409C101.786 14.5732 101.668 14.6932 101.52 14.8007C101.376 14.9063 101.2 14.9847 100.993 15.0358C100.788 15.085 100.553 15.0937 100.288 15.062ZM100.705 14.2199C100.945 14.2487 101.159 14.2263 101.347 14.1527C101.535 14.0769 101.686 13.9653 101.799 13.818C101.915 13.671 101.985 13.5038 102.007 13.3164L102.079 12.718C102.038 12.7444 101.97 12.7654 101.877 12.781C101.786 12.7968 101.684 12.8081 101.571 12.8147C101.458 12.8213 101.347 12.8258 101.237 12.8283C101.128 12.8308 101.032 12.8327 100.952 12.8342C100.77 12.837 100.606 12.8575 100.458 12.8957C100.31 12.9339 100.19 12.9976 100.096 13.087C100.003 13.1742 99.9472 13.295 99.9287 13.4493C99.9022 13.6697 99.9627 13.8457 100.11 13.9774C100.258 14.1092 100.456 14.19 100.705 14.2199Z" fill="#111010"/>
<path d="M106.034 10.53L107.155 10.834L106.077 14.8128L107.629 15.2335L108.708 11.2547L109.829 11.5586L108.751 15.5374L110.303 15.9581L111.382 11.9793L112.503 12.2833L111.165 17.2198L104.696 15.4666L106.034 10.53Z" fill="#111010"/>
<path d="M113.928 16.5794L117.18 14.1814L118.319 14.6682L116.309 19.3713L115.238 18.9133L116.608 15.7075L113.361 18.1112L112.219 17.623L114.229 12.9199L115.297 13.3766L113.928 16.5794Z" fill="#111010"/>
<path d="M120.923 20.2843L124.136 17.8835L124.97 18.3842L120.564 21.7038L119.841 21.2699L120.743 15.8448L121.567 16.3403L120.923 20.2843ZM121.308 16.1843L118.674 20.5686L117.678 19.9702L120.312 15.5859L121.308 16.1843ZM121.771 22.4291L124.405 18.0447L125.392 18.638L122.759 23.0223L121.771 22.4291Z" fill="#111010"/>
<path d="M125.831 25.3096L129.217 21.4766L130.12 22.2747L128.754 23.8219L129.083 24.1129L131.603 23.5843L132.691 24.5455L129.608 25.1726L129.319 28.3917L128.226 27.4261L128.452 25.0531L128.011 24.6628L126.734 26.1077L125.831 25.3096Z" fill="#111010"/>
<path d="M129.136 30.9616C129.026 30.8393 128.935 30.7172 128.861 30.5953C128.788 30.4765 128.736 30.3754 128.706 30.2921L129.592 29.8735C129.671 30.0382 129.757 30.171 129.851 30.272C129.944 30.373 130.057 30.4342 130.19 30.4555C130.322 30.4801 130.484 30.4551 130.677 30.3807L130.952 30.2731L133.601 25.4068L134.455 26.3589L132.366 29.815L132.401 29.8547L136.066 28.1564L136.922 29.111L131.286 31.4138C131.02 31.5235 130.763 31.5841 130.514 31.5957C130.263 31.6087 130.024 31.5642 129.795 31.4621C129.566 31.3632 129.347 31.1963 129.136 30.9616Z" fill="#111010"/>
<path d="M132.094 34.2918L137.826 30.2175L138.513 31.1837L137.823 31.6737L137.864 31.7307C138.001 31.7093 138.16 31.7043 138.339 31.7155C138.521 31.7255 138.708 31.7803 138.901 31.8798C139.097 31.9781 139.281 32.1493 139.455 32.3936C139.683 32.7157 139.808 33.0646 139.827 33.4404C139.849 33.8167 139.754 34.1946 139.542 34.5742C139.333 34.9544 138.997 35.3091 138.533 35.6383C138.076 35.9637 137.633 36.1651 137.206 36.2426C136.779 36.32 136.39 36.2892 136.038 36.1501C135.685 36.0109 135.393 35.7776 135.16 35.4501C134.99 35.2113 134.889 34.9849 134.857 34.7709C134.825 34.5569 134.831 34.362 134.875 34.1864C134.922 34.0113 134.977 33.8615 135.041 33.737L135.012 33.6963L132.792 35.2743L132.094 34.2918ZM136.427 32.6626C136.157 32.8542 135.948 33.06 135.799 33.2801C135.652 33.5019 135.573 33.7257 135.561 33.9515C135.553 34.1778 135.623 34.395 135.771 34.603C135.926 34.8202 136.113 34.9609 136.333 35.0251C136.555 35.0881 136.793 35.0846 137.049 35.0148C137.307 34.9454 137.567 34.8182 137.827 34.633C138.086 34.4491 138.289 34.2486 138.437 34.0317C138.585 33.8148 138.664 33.5925 138.674 33.3649C138.684 33.1373 138.611 32.9141 138.456 32.6951C138.306 32.4852 138.124 32.3462 137.91 32.2781C137.695 32.21 137.462 32.2087 137.209 32.2742C136.957 32.3415 136.696 32.4709 136.427 32.6626Z" fill="#111010"/>
<path d="M137.93 39.9027C137.685 39.4547 137.573 39.0163 137.594 38.5873C137.616 38.1603 137.753 37.7654 138.005 37.4024C138.26 37.0404 138.614 36.7353 139.068 36.4871C139.524 36.2379 139.974 36.1056 140.418 36.0903C140.865 36.0739 141.273 36.1721 141.642 36.385C142.015 36.5988 142.321 36.9248 142.56 37.3631C142.76 37.7273 142.869 38.0864 142.888 38.4403C142.91 38.7952 142.845 39.1229 142.693 39.4236C142.543 39.7231 142.313 39.973 142.002 40.1732L141.449 39.1623C141.643 39.0032 141.77 38.8073 141.83 38.5746C141.893 38.3428 141.855 38.0993 141.715 37.8442C141.597 37.628 141.435 37.47 141.228 37.3703C141.024 37.2696 140.789 37.2325 140.523 37.2592C140.257 37.2878 139.974 37.3847 139.672 37.5498C139.366 37.717 139.128 37.9055 138.957 38.1155C138.787 38.3244 138.688 38.5421 138.657 38.7688C138.63 38.9963 138.676 39.2201 138.797 39.4402C138.882 39.596 138.987 39.7193 139.113 39.81C139.241 39.9016 139.385 39.9585 139.544 39.9804C139.702 40.0024 139.871 39.9848 140.05 39.9275L140.603 40.9384C140.271 41.0867 139.939 41.1471 139.605 41.1196C139.273 41.0911 138.962 40.9754 138.671 40.7725C138.383 40.5685 138.136 40.2786 137.93 39.9027Z" fill="#111010"/>
<path d="M140.414 45.118C140.228 44.6545 140.169 44.2118 140.236 43.79C140.304 43.3683 140.483 42.9901 140.775 42.6555C141.067 42.323 141.459 42.0584 141.949 41.8617C142.439 41.665 142.906 41.5854 143.349 41.6229C143.793 41.6625 144.186 41.8113 144.526 42.0695C144.866 42.3276 145.129 42.6885 145.315 43.152C145.501 43.6156 145.56 44.0583 145.493 44.4801C145.425 44.9018 145.244 45.2794 144.95 45.6127C144.656 45.9482 144.264 46.2142 143.774 46.4109C143.283 46.6076 142.817 46.6857 142.375 46.6453C141.934 46.607 141.543 46.4587 141.203 46.2006C140.863 45.9425 140.6 45.5816 140.414 45.118ZM141.312 44.7647C141.413 45.0161 141.567 45.1986 141.772 45.3121C141.98 45.4249 142.218 45.4754 142.486 45.4636C142.755 45.4538 143.033 45.3911 143.322 45.2754C143.612 45.1589 143.858 45.0113 144.059 44.8326C144.263 44.6552 144.401 44.4539 144.473 44.2287C144.546 44.0036 144.532 43.7653 144.431 43.514C144.327 43.2564 144.171 43.0703 143.963 42.9555C143.755 42.8427 143.516 42.7916 143.245 42.8022C142.977 42.814 142.698 42.8781 142.407 42.9946C142.119 43.1103 141.873 43.2565 141.672 43.4331C141.471 43.6118 141.334 43.8137 141.262 44.0389C141.192 44.2652 141.209 44.5072 141.312 44.7647Z" fill="#111010"/>
<path d="M143.813 50.6065L147.785 51.1613L148.025 52.1035L142.559 51.3624L142.351 50.546L146.808 47.3247L147.045 48.2572L143.813 50.6065ZM146.971 47.9636L142.014 49.2263L141.727 48.1001L146.684 46.8375L146.971 47.9636ZM142.906 52.7273L147.863 51.4646L148.147 52.5811L143.191 53.8437L142.906 52.7273Z" fill="#111010"/>
<circle cx="95.84" cy="62.0039" r="32.76" transform="rotate(45 95.84 62.0039)" fill="#3CCFBC"/>
<path d="M103.426 52.9425L86.5971 69.771M86.5971 69.771L86.5971 53.6157M86.5971 69.771L102.752 69.771" stroke="white" stroke-width="3.01483" stroke-linecap="round" stroke-linejoin="round"/>
</svg>
