<svg width="609" height="684" viewBox="0 0 609 684" fill="none" xmlns="http://www.w3.org/2000/svg">
<rect x="32.3273" y="117.195" width="543.858" height="564.776" rx="74.1625" fill="#68D5C7" stroke="white" stroke-width="3.80321"/>
<path d="M91.2771 153.325L95.5127 183.281L119.801 188.505L95.5127 193.729L91.2771 223.684L87.0415 193.729L62.7531 188.505L87.0415 183.281L91.2771 153.325Z" fill="white"/>
<path d="M513.433 223.684L518.233 256.879L545.76 262.667L518.233 268.456L513.433 301.65L508.633 268.456L481.106 262.667L508.633 256.879L513.433 223.684Z" fill="white"/>
<path d="M143.633 394.266L143.683 394.612L144.025 394.684L169.225 399.983L144.025 405.282L143.683 405.354L143.633 405.7L139.327 435.472L135.022 405.7L134.972 405.354L134.63 405.282L109.43 399.983L134.63 394.684L134.972 394.612L135.022 394.266L139.327 364.493L143.633 394.266Z" stroke="white"/>
</svg>
